# Blender v2.83.13 OBJ File: '0-src-5-opt.blend'
# www.blender.org
v -0.000000 -0.092383 0.488512
v -0.000000 1.196961 0.488512
v -0.345430 -0.092383 0.345430
v -0.345430 1.196961 0.345430
v -0.488512 -0.092383 -0.000000
v -0.488512 1.196961 -0.000000
v -0.345430 -0.092383 -0.345430
v -0.345430 1.196961 -0.345430
v 0.000000 -0.092383 -0.488512
v 0.000000 1.196961 -0.488512
v 0.345430 -0.092383 -0.345430
v 0.345430 1.196961 -0.345430
v 0.488512 -0.092383 0.000000
v 0.488512 1.196961 0.000000
v 0.345430 -0.092383 0.345430
v 0.345430 1.196961 0.345430
v 0.000000 0.968994 0.711164
v -0.502869 0.968994 0.502869
v -0.711164 0.968994 -0.000000
v -0.502869 0.968994 -0.502869
v 0.000000 0.968994 -0.711164
v 0.502869 0.968994 -0.502869
v 0.711164 0.968994 0.000000
v 0.502869 0.968994 0.502869
v -0.502869 0.140397 0.502869
v -0.711164 0.140397 -0.000000
v -0.502869 0.140397 -0.502869
v 0.000000 0.140397 -0.711164
v 0.502869 0.140397 -0.502869
v 0.711164 0.140397 0.000000
v 0.502869 0.140397 0.502869
v 0.000000 0.140397 0.711164
v 0.000000 -0.092383 0.587643
v -0.415526 -0.092383 0.415526
v -0.415526 1.196961 0.415526
v 0.000000 1.196961 0.587643
v -0.587643 -0.092383 -0.000000
v -0.587643 1.196961 -0.000000
v -0.415526 -0.092383 -0.415526
v -0.415526 1.196961 -0.415526
v 0.000000 -0.092383 -0.587643
v 0.000000 1.196961 -0.587643
v 0.415526 -0.092383 -0.415526
v 0.415526 1.196961 -0.415526
v 0.587643 -0.092383 0.000000
v 0.587643 1.196961 0.000000
v 0.415526 -0.092383 0.415526
v 0.415526 1.196961 0.415526
v -0.345430 1.032105 0.345430
v -0.000000 1.032105 0.488512
v -0.488512 1.032105 -0.000000
v -0.345430 1.032105 -0.345430
v 0.000000 1.032105 -0.488512
v 0.345430 1.032105 -0.345430
v 0.488512 1.032105 0.000000
v 0.345430 1.032105 0.345430
v -0.000000 0.060313 0.488512
v -0.345430 0.060313 0.345430
v -0.488512 0.060313 -0.000000
v -0.345430 0.060313 -0.345430
v 0.000000 0.060313 -0.488512
v 0.345430 0.060313 -0.345430
v 0.488512 0.060313 0.000000
v 0.345430 0.060313 0.345430
v -0.502869 0.294279 0.502869
v 0.000000 0.803274 0.711164
v -0.502869 0.803274 0.502869
v -0.711164 0.803274 -0.000000
v -0.502869 0.803274 -0.502869
v 0.000000 0.803274 -0.711164
v 0.502869 0.803274 -0.502869
v 0.711164 0.803274 0.000000
v 0.502869 0.803274 0.502869
v -0.711164 0.294279 -0.000000
v -0.502869 0.294279 -0.502869
v 0.000000 0.294279 -0.711164
v 0.502869 0.294279 -0.502869
v 0.711164 0.294279 0.000000
v 0.502869 0.294279 0.502869
v 0.000000 0.294279 0.711164
v 0.000000 0.833071 0.742321
v 0.000000 0.939197 0.742321
v 0.524900 0.939197 0.524900
v 0.742321 0.939197 0.000000
v 0.524900 0.939197 -0.524900
v 0.000000 0.939197 -0.742321
v -0.524900 0.939197 -0.524900
v -0.742321 0.939197 -0.000000
v -0.524900 0.939197 0.524900
v -0.524900 0.276829 0.524900
v -0.524900 0.157848 0.524900
v -0.742321 0.276829 -0.000000
v -0.742321 0.157848 -0.000000
v -0.524900 0.276829 -0.524900
v -0.524900 0.157848 -0.524900
v 0.000000 0.276829 -0.742321
v 0.000000 0.157848 -0.742321
v 0.524900 0.276829 -0.524900
v 0.524900 0.157848 -0.524900
v 0.742321 0.276829 0.000000
v 0.742321 0.157848 0.000000
v 0.524900 0.276829 0.524900
v 0.524900 0.157848 0.524900
v 0.000000 0.157848 0.742321
v 0.000000 0.276829 0.742321
v 0.742321 0.833071 0.000000
v 0.524900 0.833071 0.524900
v 0.524900 0.833071 -0.524900
v -0.742321 0.833071 -0.000000
v -0.524900 0.833071 -0.524900
v 0.000000 0.833071 -0.742321
v -0.524900 0.833071 0.524900
vt 0.506292 0.569522
vt 0.512276 0.537247
vt 0.569215 0.537247
vt 0.575200 0.569522
vt 0.913747 0.569522
vt 0.919731 0.537247
vt 0.976671 0.537247
vt 0.982655 0.569522
vt 0.669274 0.569522
vt 0.675258 0.537247
vt 0.732198 0.537247
vt 0.738182 0.569522
vt 0.819673 0.680478
vt 0.813689 0.712753
vt 0.756749 0.712753
vt 0.750765 0.680478
vt 0.901164 0.680478
vt 0.895180 0.712753
vt 0.838240 0.712753
vt 0.832256 0.680478
vt 0.587783 0.819522
vt 0.593767 0.787247
vt 0.650707 0.787247
vt 0.656691 0.819522
vt 0.598570 0.724347
vt 0.645904 0.724347
vt 0.645904 0.745218
vt 0.598570 0.745218
vt 0.506292 0.819522
vt 0.512276 0.787247
vt 0.569215 0.787247
vt 0.575200 0.819522
vt 0.656691 0.680478
vt 0.650707 0.712753
vt 0.593767 0.712753
vt 0.587783 0.680478
vt 0.890377 0.524113
vt 0.843043 0.524113
vt 0.843043 0.504782
vt 0.890377 0.504782
vt 0.832256 0.568529
vt 0.901164 0.568528
vt 0.902674 0.572790
vt 0.830747 0.572790
vt 0.984165 0.574767
vt 0.912238 0.574767
vt 0.750765 0.568529
vt 0.819673 0.568528
vt 0.821182 0.572790
vt 0.749255 0.572790
vt 0.739691 0.574767
vt 0.667764 0.574767
vt 0.738182 0.681472
vt 0.669274 0.681472
vt 0.667764 0.677210
vt 0.739691 0.677210
vt 0.749255 0.675233
vt 0.821182 0.675233
vt 0.506292 0.907886
vt 0.575200 0.907886
vt 0.576709 0.912147
vt 0.504782 0.912147
vt 0.982655 0.681471
vt 0.913747 0.681471
vt 0.912238 0.677210
vt 0.984165 0.677210
vt 0.512276 0.714292
vt 0.506292 0.681472
vt 0.575200 0.681471
vt 0.569215 0.714292
vt 0.919731 0.714292
vt 0.976671 0.714292
vt 0.675258 0.714292
vt 0.732198 0.714292
vt 0.813689 0.535708
vt 0.756749 0.535708
vt 0.895180 0.535708
vt 0.838240 0.535708
vt 0.593767 0.964292
vt 0.587783 0.931471
vt 0.656691 0.931471
vt 0.650707 0.964292
vt 0.512276 0.964292
vt 0.506292 0.931471
vt 0.575200 0.931471
vt 0.569215 0.964292
vt 0.650707 0.535708
vt 0.656691 0.568528
vt 0.587783 0.568528
vt 0.593767 0.535708
vt 0.564413 0.725887
vt 0.517079 0.725887
vt 0.517079 0.525653
vt 0.564413 0.525653
vt 0.971868 0.725887
vt 0.924534 0.725887
vt 0.924534 0.525653
vt 0.971868 0.525653
vt 0.727395 0.725887
vt 0.680061 0.725887
vt 0.680061 0.525653
vt 0.727395 0.525653
vt 0.761552 0.524113
vt 0.808886 0.524113
vt 0.808886 0.724347
vt 0.761552 0.724347
vt 0.890377 0.724347
vt 0.843043 0.724347
vt 0.645904 0.975887
vt 0.598570 0.975887
vt 0.598570 0.775653
vt 0.645904 0.775653
vt 0.564413 0.975887
vt 0.517078 0.975887
vt 0.517078 0.775653
vt 0.564413 0.775653
vt 0.598570 0.524113
vt 0.645904 0.524113
vt 0.864757 0.844411
vt 0.864757 0.917020
vt 0.813415 0.968363
vt 0.740806 0.968363
vt 0.689464 0.917020
vt 0.689464 0.844411
vt 0.740806 0.793069
vt 0.813415 0.793069
vt 0.517078 0.754782
vt 0.564413 0.754782
vt 0.598570 0.754782
vt 0.645904 0.754782
vt 0.890377 0.745218
vt 0.843043 0.745218
vt 0.808886 0.745218
vt 0.761552 0.745218
vt 0.680061 0.504782
vt 0.727395 0.504782
vt 0.924534 0.504782
vt 0.971868 0.504782
vt 0.517079 0.504782
vt 0.564413 0.504782
vt 0.979748 0.893286
vt 0.954339 0.918695
vt 0.918406 0.918695
vt 0.892997 0.893286
vt 0.892997 0.857352
vt 0.918406 0.831944
vt 0.954339 0.831944
vt 0.979748 0.857352
vt 0.761552 0.504782
vt 0.808886 0.504782
vt 0.727395 0.745218
vt 0.680061 0.745218
vt 0.971868 0.745218
vt 0.924534 0.745218
vt 0.564413 0.745218
vt 0.517079 0.745218
vt 0.598570 0.504782
vt 0.645904 0.504782
vt 0.564413 0.995218
vt 0.517078 0.995218
vt 0.645904 0.995218
vt 0.598570 0.995218
vt 0.506292 0.657885
vt 0.506292 0.593447
vt 0.575200 0.593447
vt 0.575200 0.657886
vt 0.913747 0.657886
vt 0.913747 0.593447
vt 0.982655 0.593447
vt 0.982655 0.657886
vt 0.669274 0.657886
vt 0.669274 0.593447
vt 0.738182 0.593447
vt 0.738182 0.657886
vt 0.819673 0.592114
vt 0.819673 0.656553
vt 0.750765 0.656553
vt 0.750765 0.592114
vt 0.901164 0.592114
vt 0.901164 0.656553
vt 0.832256 0.656553
vt 0.832256 0.592114
vt 0.587783 0.907886
vt 0.587783 0.843447
vt 0.656691 0.843447
vt 0.656691 0.907886
vt 0.506292 0.843447
vt 0.575200 0.843447
vt 0.656691 0.592114
vt 0.656691 0.656553
vt 0.587783 0.656553
vt 0.587783 0.592114
vt 0.749255 0.587853
vt 0.821182 0.587853
vt 0.830747 0.675233
vt 0.902674 0.675233
vt 0.504782 0.677210
vt 0.576709 0.677210
vt 0.658200 0.824767
vt 0.586273 0.824767
vt 0.984165 0.662147
vt 0.912238 0.662147
vt 0.504782 0.588202
vt 0.576709 0.588202
vt 0.576709 0.824767
vt 0.504782 0.824767
vt 0.739691 0.662147
vt 0.667764 0.662147
vt 0.658200 0.661798
vt 0.658200 0.675233
vt 0.586273 0.675233
vt 0.586273 0.661798
vt 0.504782 0.838202
vt 0.576709 0.838202
vt 0.586273 0.838202
vt 0.658200 0.838202
vt 0.902674 0.661798
vt 0.830747 0.661798
vt 0.821182 0.661798
vt 0.749255 0.661798
vt 0.667764 0.588202
vt 0.739691 0.588202
vt 0.912238 0.588202
vt 0.984165 0.588202
vt 0.504782 0.574767
vt 0.576709 0.574767
vt 0.658200 0.572790
vt 0.658200 0.587853
vt 0.586273 0.587853
vt 0.586273 0.572790
vt 0.504782 0.927210
vt 0.576709 0.927210
vt 0.586273 0.927210
vt 0.586273 0.912147
vt 0.658200 0.912147
vt 0.658200 0.927210
vt 0.902674 0.587853
vt 0.830747 0.587853
vt 0.504782 0.662147
vt 0.576709 0.662147
vn -0.3422 0.4476 0.8261
vn -0.8261 0.4476 0.3422
vn -0.8261 0.4476 -0.3422
vn -0.3422 0.4476 -0.8261
vn 0.3422 0.4476 -0.8261
vn 0.8261 0.4476 -0.3422
vn -0.3827 0.0000 -0.9239
vn 0.8261 0.4476 0.3422
vn 0.3422 0.4476 0.8261
vn -0.3827 0.0000 0.9239
vn 0.1984 -0.8551 -0.4790
vn -0.6645 0.6948 0.2752
vn -0.1984 -0.8551 -0.4790
vn -0.6645 0.6948 -0.2752
vn -0.4790 -0.8551 -0.1984
vn -0.2752 0.6948 -0.6645
vn 0.4790 0.8551 0.1984
vn -0.4790 -0.8551 0.1984
vn -0.3436 -0.4402 0.8296
vn -0.8296 -0.4402 0.3436
vn -0.8296 -0.4402 -0.3436
vn -0.3436 -0.4402 -0.8296
vn 0.3436 -0.4402 -0.8296
vn 0.8296 -0.4402 -0.3436
vn 0.8296 -0.4402 0.3436
vn 0.3436 -0.4402 0.8296
vn 0.0000 -1.0000 0.0000
vn 0.0000 1.0000 0.0000
vn -0.9239 0.0000 -0.3827
vn -0.9239 0.0000 0.3827
vn 0.3827 0.0000 0.9239
vn 0.9239 0.0000 0.3827
vn 0.9239 0.0000 -0.3827
vn 0.3827 0.0000 -0.9239
vn -0.1984 0.8551 -0.4790
vn 0.2752 0.6948 -0.6645
vn -0.1984 -0.8551 0.4790
vn 0.6645 0.6948 -0.2752
vn -0.4790 0.8551 0.1984
vn -0.2752 -0.6948 0.6645
vn 0.6645 0.6948 0.2752
vn -0.4790 0.8551 -0.1984
vn -0.2752 0.6948 0.6645
vn 0.1984 0.8551 0.4790
vn 0.4790 -0.8551 -0.1984
vn 0.6645 -0.6948 0.2752
vn 0.4790 -0.8551 0.1984
vn 0.6645 -0.6948 -0.2752
vn 0.1984 -0.8551 0.4790
vn -0.2752 -0.6948 -0.6645
vn -0.6645 -0.6948 -0.2752
vn 0.1984 0.8551 -0.4790
vn 0.2752 -0.6948 -0.6645
vn 0.4790 0.8551 -0.1984
vn 0.2752 -0.6948 0.6645
vn -0.1984 0.8551 0.4790
vn 0.2752 0.6948 0.6645
vn -0.6645 -0.6948 0.2752
s off
f 17/1/1 36/2/1 35/3/1 18/4/1
f 18/5/2 35/6/2 38/7/2 19/8/2
f 19/9/3 38/10/3 40/11/3 20/12/3
f 20/13/4 40/14/4 42/15/4 21/16/4
f 21/17/5 42/18/5 44/19/5 22/20/5
f 22/21/6 44/22/6 46/23/6 23/24/6
f 2/25/7 16/26/7 56/27/7 50/28/7
f 23/29/8 46/30/8 48/31/8 24/32/8
f 24/33/9 48/34/9 36/35/9 17/36/9
f 9/37/10 11/38/10 62/39/10 61/40/10
f 29/41/11 28/42/11 97/43/11 99/44/11
f 18/5/12 19/8/12 88/45/12 89/46/12
f 28/47/13 27/48/13 95/49/13 97/50/13
f 19/9/14 20/12/14 87/51/14 88/52/14
f 27/53/15 26/54/15 93/55/15 95/56/15
f 20/13/16 21/16/16 86/57/16 87/58/16
f 78/59/17 79/60/17 102/61/17 100/62/17
f 26/63/18 25/64/18 91/65/18 93/66/18
f 33/67/19 32/68/19 25/69/19 34/70/19
f 34/71/20 25/64/20 26/63/20 37/72/20
f 37/73/21 26/54/21 27/53/21 39/74/21
f 39/75/22 27/48/22 28/47/22 41/76/22
f 41/77/23 28/42/23 29/41/23 43/78/23
f 43/79/24 29/80/24 30/81/24 45/82/24
f 45/83/25 30/84/25 31/85/25 47/86/25
f 47/87/26 31/88/26 32/89/26 33/90/26
f 3/91/27 1/92/27 33/67/27 34/70/27
f 2/93/28 4/94/28 35/3/28 36/2/28
f 5/95/27 3/96/27 34/71/27 37/72/27
f 4/97/28 6/98/28 38/7/28 35/6/28
f 7/99/27 5/100/27 37/73/27 39/74/27
f 6/101/28 8/102/28 40/11/28 38/10/28
f 9/103/27 7/104/27 39/75/27 41/76/27
f 8/105/28 10/106/28 42/15/28 40/14/28
f 11/38/27 9/37/27 41/77/27 43/78/27
f 10/107/28 12/108/28 44/19/28 42/18/28
f 13/109/27 11/110/27 43/79/27 45/82/27
f 12/111/28 14/112/28 46/23/28 44/22/28
f 15/113/27 13/114/27 45/83/27 47/86/27
f 14/115/28 16/116/28 48/31/28 46/30/28
f 1/117/27 15/118/27 47/87/27 33/90/27
f 16/26/28 2/25/28 36/35/28 48/34/28
f 49/119/28 50/120/28 56/121/28 55/122/28 54/123/28 53/124/28 52/125/28 51/126/28
f 16/116/29 14/115/29 55/127/29 56/128/29
f 14/112/30 12/111/30 54/129/30 55/130/30
f 12/108/10 10/107/10 53/131/10 54/132/10
f 10/106/31 8/105/31 52/133/31 53/134/31
f 8/102/32 6/101/32 51/135/32 52/136/32
f 6/98/33 4/97/33 49/137/33 51/138/33
f 4/94/34 2/93/34 50/139/34 49/140/34
f 57/141/27 58/142/27 59/143/27 60/144/27 61/145/27 62/146/27 63/147/27 64/148/27
f 7/104/31 9/103/31 61/149/31 60/150/31
f 5/100/32 7/99/32 60/151/32 59/152/32
f 3/96/33 5/95/33 59/153/33 58/154/33
f 1/92/34 3/91/34 58/155/34 57/156/34
f 15/118/7 1/117/7 57/157/7 64/158/7
f 13/114/29 15/113/29 64/159/29 63/160/29
f 11/110/30 13/109/30 63/161/30 62/162/30
f 80/163/10 66/164/10 67/165/10 65/166/10
f 65/167/30 67/168/30 68/169/30 74/170/30
f 74/171/29 68/172/29 69/173/29 75/174/29
f 75/175/7 69/176/7 70/177/7 76/178/7
f 76/179/34 70/180/34 71/181/34 77/182/34
f 77/183/33 71/184/33 72/185/33 78/186/33
f 78/59/32 72/187/32 73/188/32 79/60/32
f 79/189/31 73/190/31 66/191/31 80/192/31
f 75/175/35 76/178/35 96/193/35 94/194/35
f 21/17/36 22/20/36 85/195/36 86/196/36
f 25/69/37 32/68/37 104/197/37 91/198/37
f 22/21/38 23/24/38 84/199/38 85/200/38
f 65/167/39 74/170/39 92/201/39 90/202/39
f 67/165/40 66/164/40 81/203/40 112/204/40
f 23/29/41 24/32/41 83/205/41 84/206/41
f 74/171/42 75/174/42 94/207/42 92/208/42
f 107/209/31 83/210/31 82/211/31 81/212/31
f 106/213/32 84/206/32 83/205/32 107/214/32
f 108/215/33 85/200/33 84/199/33 106/216/33
f 111/217/34 86/196/34 85/195/34 108/218/34
f 110/219/7 87/58/7 86/57/7 111/220/7
f 109/221/29 88/52/29 87/51/29 110/222/29
f 112/223/30 89/46/30 88/45/30 109/224/30
f 81/203/10 82/225/10 89/226/10 112/204/10
f 103/227/31 102/228/31 105/229/31 104/230/31
f 101/231/32 100/62/32 102/61/32 103/232/32
f 99/233/33 98/234/33 100/235/33 101/236/33
f 97/43/34 96/237/34 98/238/34 99/44/34
f 95/49/7 94/194/7 96/193/7 97/50/7
f 93/55/29 92/208/29 94/207/29 95/56/29
f 91/65/30 90/202/30 92/201/30 93/66/30
f 104/197/10 105/239/10 90/240/10 91/198/10
f 17/1/43 18/4/43 89/226/43 82/225/43
f 79/189/44 80/192/44 105/229/44 102/228/44
f 30/81/45 29/80/45 99/233/45 101/236/45
f 73/188/46 72/187/46 106/213/46 107/214/46
f 31/85/47 30/84/47 101/231/47 103/232/47
f 72/185/48 71/184/48 108/215/48 106/216/48
f 32/89/49 31/88/49 103/227/49 104/230/49
f 70/177/50 69/176/50 110/219/50 111/220/50
f 69/173/51 68/172/51 109/221/51 110/222/51
f 76/179/52 77/182/52 98/238/52 96/237/52
f 71/181/53 70/180/53 111/217/53 108/218/53
f 77/183/54 78/186/54 100/235/54 98/234/54
f 66/191/55 73/190/55 107/209/55 81/212/55
f 80/163/56 65/166/56 90/240/56 105/239/56
f 24/33/57 17/36/57 82/211/57 83/210/57
f 68/169/58 67/168/58 112/223/58 109/224/58
