# Blender v2.83.13 OBJ File: '0-src-5-opt.blend'
# www.blender.org
v 3.741259 -0.092385 6.760758
v -3.741259 -0.092385 6.760758
v 3.741259 2.980142 6.760758
v -3.741259 2.980142 6.760758
v 0.000000 2.980142 7.108887
v 3.741259 1.443878 6.760758
v -1.870630 -0.092385 7.108887
v -3.741259 1.443878 6.760758
v 1.685505 2.980142 7.108887
v 1.870630 -0.092385 7.108887
v -1.685505 2.980142 7.108887
v 0.000000 1.443878 7.108887
v 1.685505 1.443878 7.108887
v -1.685505 1.443878 7.108887
v 1.698574 0.191534 7.108887
v 3.741259 0.191534 6.760758
v -0.949793 -0.092385 7.108887
v -3.741259 0.191534 6.760758
v -1.698574 0.191534 7.108887
v 0.000000 1.125647 7.108887
v -1.278205 0.710618 7.108887
v 1.195838 0.746371 7.108887
v 0.949793 -0.092385 7.108887
v 0.949793 0.091237 7.108887
v -0.949793 0.091237 7.108887
v -0.005980 0.609437 7.108887
v -0.777037 0.359876 7.108887
v 0.729225 0.386686 7.108887
v 3.741259 -0.092385 6.406057
v -1.616096 -0.092385 6.754186
v -3.741259 -0.092385 6.406057
v 1.616096 -0.092385 6.754186
v -0.994015 -0.092385 6.717892
v -0.994015 0.091237 6.765708
v 0.994015 -0.092385 6.717892
v 0.994015 0.091237 6.765708
v -0.006258 0.609437 6.765708
v -0.813215 0.359876 6.765708
v 0.763177 0.386686 6.765708
v 3.741259 0.025492 6.436753
v 3.741259 0.112829 6.519940
v 1.580077 0.028525 6.783570
v 1.633181 0.112013 6.865572
v -3.741259 0.112851 6.520009
v -3.741259 0.025492 6.436753
v -1.633200 0.112035 6.865641
v -1.576760 0.028590 6.783394
v -0.001699 1.036828 6.864238
v -0.002805 0.948101 6.796073
v -1.083368 0.596906 6.795903
v -1.166332 0.658113 6.864117
v 1.005453 0.630170 6.795781
v 1.084041 0.693902 6.864282
vt 0.087160 0.641009
vt 0.087168 0.506184
vt 0.186507 0.506189
vt 0.186500 0.641012
vt 0.087161 0.858991
vt 0.087161 0.750001
vt 0.186499 0.750001
vt 0.186500 0.858989
vt 0.087171 0.993815
vt 0.186507 0.993809
vt 0.350133 0.539885
vt 0.365019 0.532032
vt 0.382519 0.611083
vt 0.358373 0.616058
vt 0.029823 0.724042
vt 0.031087 0.721951
vt 0.033338 0.723007
vt 0.032291 0.724945
vt 0.006179 0.640169
vt 0.006187 0.506179
vt 0.031883 0.721164
vt 0.034194 0.721679
vt 0.006191 0.993821
vt 0.006181 0.859832
vt 0.066584 0.750001
vt 0.039745 0.667349
vt 0.042059 0.827326
vt 0.028465 0.730508
vt 0.030848 0.730511
vt 0.305220 0.983938
vt 0.255292 0.913951
vt 0.282783 0.893211
vt 0.334353 0.966418
vt 0.028796 0.760566
vt 0.030658 0.745402
vt 0.033983 0.744027
vt 0.031630 0.761446
vt 0.030653 0.715581
vt 0.028785 0.700374
vt 0.031627 0.699491
vt 0.033988 0.716959
vt 0.416610 0.976593
vt 0.418235 0.770790
vt 0.443107 0.766968
vt 0.442727 0.979142
vt 0.418552 0.744653
vt 0.416771 0.524307
vt 0.444725 0.521573
vt 0.445174 0.748739
vt 0.217689 0.750207
vt 0.251343 0.750377
vt 0.038956 0.793152
vt 0.020597 0.793152
vt 0.025684 0.777585
vt 0.031333 0.772201
vt 0.038956 0.770216
vt 0.252296 0.596847
vt 0.279964 0.617378
vt 0.294506 0.883439
vt 0.264768 0.750524
vt 0.305200 0.751071
vt 0.328505 0.854891
vt 0.305499 0.516427
vt 0.334898 0.533557
vt 0.364378 0.968159
vt 0.349623 0.959757
vt 0.358382 0.883979
vt 0.382519 0.889149
vt 0.031085 0.739039
vt 0.029698 0.736578
vt 0.032140 0.735740
vt 0.033345 0.737990
vt 0.031882 0.739828
vt 0.034194 0.739320
vt 0.291932 0.626685
vt 0.326174 0.652049
vt 0.470873 0.521666
vt 0.470873 0.750671
vt 0.457930 0.750143
vt 0.457789 0.517035
vt 0.467103 0.765163
vt 0.467103 0.979052
vt 0.454876 0.983056
vt 0.455015 0.765656
vt 0.028590 0.717413
vt 0.026426 0.700671
vt 0.026259 0.721233
vt 0.024937 0.730580
vt 0.026220 0.739156
vt 0.028600 0.743575
vt 0.026443 0.760270
vt 0.009411 0.803419
vt 0.027770 0.803419
vt 0.027770 0.826355
vt 0.020148 0.824370
vt 0.014501 0.818991
vn 0.1670 0.0000 -0.9860
vn 0.0000 0.0000 -1.0000
vn -0.1670 0.0000 -0.9860
vn 0.0564 0.2516 -0.9662
vn 0.8314 -0.5471 -0.0974
vn 0.1675 -0.0009 -0.9859
vn 0.9927 0.0156 -0.1196
vn -0.1675 -0.0009 -0.9859
vn 0.3015 -0.9533 -0.0160
vn -0.7004 0.5828 -0.4120
vn 0.0000 -1.0000 0.0000
vn -0.0510 0.9513 -0.3040
vn 0.0510 0.9513 -0.3040
vn -0.2922 0.8993 -0.3255
vn -1.0000 0.0000 0.0000
vn 0.2853 0.9012 -0.3264
vn -0.0290 0.0913 -0.9954
vn 0.6695 0.6190 -0.4106
vn -0.0564 0.2516 -0.9662
vn -0.7914 -0.6046 -0.0901
vn -0.9927 0.0156 -0.1196
vn -0.2839 -0.9588 -0.0139
vn 0.0277 0.0916 -0.9954
vn -0.0455 0.0515 -0.9976
vn 0.1560 0.2160 -0.9638
vn -0.1560 0.2188 -0.9632
vn 0.0458 0.0547 -0.9975
vn -0.1749 0.0530 0.9832
vn 0.0000 0.0000 1.0000
vn 0.1749 0.0530 0.9832
vn 0.1122 0.7104 -0.6948
vn -0.1126 0.7086 -0.6966
vn -0.1948 0.5996 -0.7762
vn -0.4512 0.3967 -0.7994
vn 0.4366 0.4218 -0.7946
vn 0.1889 0.5989 -0.7782
vn 1.0000 0.0000 0.0000
s off
f 14/1/1 8/2/1 4/3/1 11/4/1
f 13/5/2 12/6/2 5/7/2 9/8/2
f 6/9/3 13/5/3 9/8/3 3/10/3
f 42/11/4 32/12/4 35/13/4 36/14/4
f 12/6/2 14/1/2 11/4/2 5/7/2
f 27/15/5 25/16/5 34/17/5 38/18/5
f 19/19/6 18/20/6 8/2/6 14/1/6
f 25/16/7 17/21/7 33/22/7 34/17/7
f 16/23/8 15/24/8 13/5/8 6/9/8
f 20/25/2 21/26/2 19/19/2 14/1/2 12/6/2
f 22/27/2 20/25/2 12/6/2 13/5/2 15/24/2
f 26/28/9 27/15/9 38/18/9 37/29/9
f 19/30/10 21/31/10 51/32/10 46/33/10
f 1/34/11 10/35/11 32/36/11 29/37/11
f 7/38/11 2/39/11 31/40/11 30/41/11
f 15/42/12 16/43/12 41/44/12 43/45/12
f 18/46/13 19/47/13 46/48/13 44/49/13
f 21/31/14 20/50/14 48/51/14 51/32/14
f 2/52/15 18/53/15 44/54/15 45/55/15 31/56/15
f 20/50/16 22/57/16 53/58/16 48/51/16
f 50/59/17 49/60/17 37/61/17 38/62/17
f 22/57/18 15/63/18 43/64/18 53/58/18
f 30/65/19 47/66/19 34/67/19 33/68/19
f 24/69/20 28/70/20 39/71/20 36/72/20
f 23/73/21 24/69/21 36/72/21 35/74/21
f 10/35/11 23/73/11 35/74/11 32/36/11
f 28/70/22 26/28/22 37/29/22 39/71/22
f 49/60/23 52/75/23 39/76/23 37/61/23
f 17/21/11 7/38/11 30/41/11 33/22/11
f 47/66/24 50/59/24 38/62/24 34/67/24
f 30/77/25 31/78/25 45/79/25 47/80/25
f 29/81/26 32/82/26 42/83/26 40/84/26
f 52/75/27 42/11/27 36/14/27 39/76/27
f 7/38/28 19/85/28 18/86/28 2/39/28
f 25/16/29 19/85/29 7/38/29 17/21/29
f 27/15/29 21/87/29 19/85/29 25/16/29
f 26/28/29 20/88/29 21/87/29 27/15/29
f 28/70/29 22/89/29 20/88/29 26/28/29
f 24/69/29 15/90/29 22/89/29 28/70/29
f 24/69/29 23/73/29 10/35/29 15/90/29
f 16/91/30 15/90/30 10/35/30 1/34/30
f 47/80/31 45/79/31 44/49/31 46/48/31
f 40/84/32 42/83/32 43/45/32 41/44/32
f 49/60/33 50/59/33 51/32/33 48/51/33
f 50/59/34 47/66/34 46/33/34 51/32/34
f 42/11/35 52/75/35 53/58/35 43/64/35
f 52/75/36 49/60/36 48/51/36 53/58/36
f 16/92/37 1/93/37 29/94/37 40/95/37 41/96/37
