# Blender v2.83.13 OBJ File: '0-src-5-opt.blend'
# www.blender.org
v 3.184235 0.075284 2.123100
v -3.185634 0.075284 2.123100
v 3.184235 0.075284 2.260000
v -3.185634 0.075284 2.260000
v 3.184235 0.125284 2.191550
v -3.185634 0.125284 2.191550
v 3.184235 0.075284 1.246200
v -3.185634 0.075284 1.246200
v 3.184235 0.075284 1.383100
v -3.185634 0.075284 1.383100
v 3.184235 0.125284 1.314650
v -3.185634 0.125284 1.314650
v 3.184235 0.075284 0.369300
v -3.185634 0.075284 0.369300
v 3.184235 0.075284 0.506200
v -3.185634 0.075284 0.506200
v 3.184235 0.125284 0.437750
v -3.185634 0.125284 0.437750
v 3.184235 0.075284 -0.507600
v -3.185634 0.075284 -0.507600
v 3.184235 0.075284 -0.370700
v -3.185634 0.075284 -0.370700
v 3.184235 0.125284 -0.439150
v -3.185634 0.125284 -0.439150
v 3.184235 0.075284 -1.384500
v -3.185634 0.075284 -1.384500
v 3.184235 0.075284 -1.247600
v -3.185634 0.075284 -1.247600
v 3.184235 0.125284 -1.316050
v -3.185634 0.125284 -1.316050
v 3.184235 0.075284 -2.261400
v -3.185634 0.075284 -2.261400
v 3.184235 0.075284 -2.124500
v -3.185634 0.075284 -2.124500
v 3.184235 0.125284 -2.192950
v -3.185634 0.125284 -2.192950
v -2.124500 0.075284 3.187391
v -2.124500 0.075284 -3.188790
v -2.261400 0.075284 3.187391
v -2.261400 0.075284 -3.188790
v -2.192950 0.125284 3.187391
v -2.192950 0.125284 -3.188790
v -1.247600 0.075284 3.187391
v -1.247600 0.075284 -3.188790
v -1.384500 0.075284 3.187391
v -1.384500 0.075284 -3.188790
v -1.316050 0.125284 3.187391
v -1.316050 0.125284 -3.188790
v -0.370700 0.075284 3.187391
v -0.370700 0.075284 -3.188791
v -0.507600 0.075284 3.187391
v -0.507600 0.075284 -3.188791
v -0.439150 0.125284 3.187391
v -0.439150 0.125284 -3.188791
v 0.506200 0.075284 3.187391
v 0.506200 0.075284 -3.188791
v 0.369300 0.075284 3.187391
v 0.369300 0.075284 -3.188791
v 0.437750 0.125284 3.187391
v 0.437750 0.125284 -3.188791
v 1.383100 0.075284 3.187391
v 1.383100 0.075284 -3.188791
v 1.246200 0.075284 3.187391
v 1.246200 0.075284 -3.188791
v 1.314650 0.125284 3.187391
v 1.314650 0.125284 -3.188791
v 2.260000 0.075284 3.187391
v 2.260000 0.075284 -3.188791
v 2.123101 0.075284 3.187391
v 2.123100 0.075284 -3.188791
v 2.191550 0.125284 3.187391
v 2.191550 0.125284 -3.188791
v -0.507600 0.075284 1.383100
v -0.507600 0.075284 2.260000
v -0.507600 0.075284 1.246200
v -0.507600 0.075284 2.123100
v -0.507600 0.075284 -0.370700
v -0.507600 0.075284 0.506200
v -0.507600 0.075284 -0.507600
v -0.507600 0.075284 0.369300
v -0.507600 0.075284 -2.124500
v -0.507600 0.075284 -1.247600
v -0.507600 0.075284 -2.261400
v -0.507600 0.075284 -1.384500
v -0.439150 0.125284 1.314650
v -0.439150 0.125284 2.191550
v -0.439150 0.125284 -0.439150
v -0.439150 0.125284 0.437750
v -0.439150 0.125284 -2.192950
v -0.439150 0.125284 -1.316050
v -1.384500 0.075284 1.383100
v -1.384500 0.075284 2.260000
v -1.384500 0.075284 1.246200
v -1.384500 0.075284 2.123100
v -1.384500 0.075284 -0.370700
v -1.384500 0.075284 0.506200
v -1.384500 0.075284 -0.507600
v -1.384500 0.075284 0.369300
v -1.384500 0.075284 -2.124499
v -1.384500 0.075284 -1.247599
v -1.384500 0.075284 -2.261400
v -1.384500 0.075284 -1.384500
v -1.247600 0.075284 1.383100
v -1.247600 0.075284 2.260000
v -1.247600 0.075284 1.246200
v -1.247600 0.075284 2.123100
v -1.247600 0.075284 -0.370700
v -1.247600 0.075284 0.506200
v -1.247600 0.075284 -0.507600
v -1.247600 0.075284 0.369300
v -1.247600 0.075284 -2.124499
v -1.247600 0.075284 -1.247599
v -1.247600 0.075284 -2.261400
v -1.247600 0.075284 -1.384500
v -1.316050 0.125284 1.314650
v -1.316050 0.125284 2.191550
v -1.316050 0.125284 -0.439150
v -1.316050 0.125284 0.437750
v -1.316050 0.125284 -2.192950
v -1.316050 0.125284 -1.316049
v -0.370700 0.075284 1.383100
v -0.370700 0.075284 2.260000
v -0.370700 0.075284 1.246200
v -0.370700 0.075284 2.123100
v -0.370700 0.075284 -0.370700
v -0.370700 0.075284 0.506200
v -0.370700 0.075284 -0.507600
v -0.370700 0.075284 0.369300
v -0.370700 0.075284 -2.124500
v -0.370700 0.075284 -1.247600
v -0.370700 0.075284 -2.261400
v -0.370700 0.075284 -1.384500
v -2.261400 0.075284 1.383100
v -2.261400 0.075284 2.260000
v -2.261400 0.075284 1.246200
v -2.261400 0.075284 2.123100
v -2.261400 0.075284 -0.370700
v -2.261400 0.075284 0.506200
v -2.261400 0.075284 -0.507600
v -2.261400 0.075284 0.369300
v -2.261400 0.075284 -2.124499
v -2.261400 0.075284 -1.247599
v -2.261400 0.075284 -2.261400
v -2.261400 0.075284 -1.384500
v -2.192950 0.125284 1.314650
v -2.192950 0.125284 2.191550
v -2.192950 0.125284 -0.439150
v -2.192950 0.125284 0.437750
v -2.192950 0.125284 -2.192950
v -2.192950 0.125284 -1.316049
v 0.437750 0.125284 1.314650
v 0.437750 0.125284 2.191550
v 0.437750 0.125284 -0.439150
v 0.437750 0.125284 0.437750
v 0.437750 0.125284 -2.192950
v 0.437750 0.125284 -1.316050
v 0.369300 0.075284 1.383100
v 0.369300 0.075284 2.260000
v 0.369300 0.075284 1.246200
v 0.369300 0.075284 2.123100
v 0.369300 0.075284 -0.370700
v 0.369300 0.075284 0.506200
v 0.369300 0.075284 -0.507600
v 0.369300 0.075284 0.369300
v 0.369300 0.075284 -2.124500
v 0.369300 0.075284 -1.247600
v 0.369300 0.075284 -2.261400
v 0.369300 0.075284 -1.384500
v -2.124500 0.075284 1.383100
v -2.124500 0.075284 2.260000
v -2.124500 0.075284 1.246200
v -2.124500 0.075284 2.123100
v -2.124500 0.075284 -0.370700
v -2.124500 0.075284 0.506200
v -2.124500 0.075284 -0.507600
v -2.124500 0.075284 0.369300
v -2.124500 0.075284 -2.124499
v -2.124500 0.075284 -1.247599
v -2.124500 0.075284 -2.261400
v -2.124500 0.075284 -1.384500
v 0.506200 0.075284 1.383100
v 0.506200 0.075284 2.260000
v 0.506200 0.075284 1.246200
v 0.506200 0.075284 2.123100
v 0.506200 0.075284 -0.370700
v 0.506200 0.075284 0.506200
v 0.506200 0.075284 -0.507600
v 0.506200 0.075284 0.369300
v 0.506200 0.075284 -2.124500
v 0.506200 0.075284 -1.247600
v 0.506200 0.075284 -2.261400
v 0.506200 0.075284 -1.384500
v 1.383100 0.075284 1.383100
v 1.383100 0.075284 2.260000
v 1.383100 0.075284 1.246200
v 1.383100 0.075284 2.123100
v 1.383100 0.075284 -0.370699
v 1.383100 0.075284 0.506200
v 1.383100 0.075284 -0.507600
v 1.383100 0.075284 0.369300
v 1.383100 0.075284 -2.124499
v 1.383100 0.075284 -1.247600
v 1.383100 0.075284 -2.261400
v 1.383100 0.075284 -1.384500
v 1.314650 0.125284 1.314650
v 1.314650 0.125284 2.191550
v 1.314650 0.125284 -0.439150
v 1.314650 0.125284 0.437750
v 1.314650 0.125284 -2.192950
v 1.314650 0.125284 -1.316050
v 1.246200 0.075284 1.383100
v 1.246200 0.075284 2.260000
v 1.246200 0.075284 1.246200
v 1.246200 0.075284 2.123100
v 1.246200 0.075284 -0.370699
v 1.246200 0.075284 0.506200
v 1.246200 0.075284 -0.507600
v 1.246200 0.075284 0.369300
v 1.246200 0.075284 -2.124499
v 1.246200 0.075284 -1.247600
v 1.246200 0.075284 -2.261400
v 1.246200 0.075284 -1.384500
v 2.260000 0.075284 1.383100
v 2.260000 0.075284 2.260000
v 2.260000 0.075284 1.246200
v 2.260000 0.075284 2.123100
v 2.260000 0.075284 -0.370700
v 2.260000 0.075284 0.506200
v 2.260000 0.075284 -0.507600
v 2.260000 0.075284 0.369300
v 2.260000 0.075284 -2.124500
v 2.260000 0.075284 -1.247599
v 2.260000 0.075284 -2.261400
v 2.260000 0.075284 -1.384499
v 2.123101 0.075284 1.383100
v 2.123101 0.075284 2.260000
v 2.123101 0.075284 1.246200
v 2.123101 0.075284 2.123100
v 2.123100 0.075284 -0.370700
v 2.123101 0.075284 0.506200
v 2.123100 0.075284 -0.507600
v 2.123101 0.075284 0.369300
v 2.123100 0.075284 -2.124500
v 2.123100 0.075284 -1.247599
v 2.123100 0.075284 -2.261400
v 2.123100 0.075284 -1.384499
v 2.191550 0.125284 1.314650
v 2.191550 0.125284 2.191550
v 2.191550 0.125284 -0.439150
v 2.191550 0.125284 0.437750
v 2.191550 0.125284 -2.192950
v 2.191550 0.125284 -1.316049
vt 0.000000 0.460955
vt 0.038960 0.460955
vt 0.036274 0.463638
vt 0.000000 0.463638
vt 0.000000 0.458271
vt 0.036274 0.458271
vt 0.000000 0.426573
vt 0.038960 0.426573
vt 0.036274 0.429257
vt 0.000000 0.429257
vt 0.000000 0.423889
vt 0.036274 0.423889
vt 0.000000 0.392191
vt 0.038960 0.392191
vt 0.036274 0.394875
vt 0.000000 0.394875
vt 0.000000 0.389507
vt 0.036274 0.389507
vt 0.000000 0.357809
vt 0.038960 0.357809
vt 0.036274 0.360493
vt 0.000000 0.360493
vt 0.000000 0.355125
vt 0.036274 0.355125
vt 0.000000 0.323427
vt 0.038960 0.323427
vt 0.036274 0.326111
vt 0.000000 0.326111
vt 0.000000 0.320743
vt 0.036274 0.320743
vt 0.000000 0.289045
vt 0.038960 0.289045
vt 0.036274 0.291729
vt 0.000000 0.291729
vt 0.000000 0.286362
vt 0.036274 0.286362
vt 0.211040 0.500000
vt 0.211040 0.460955
vt 0.213726 0.463638
vt 0.213726 0.500000
vt 0.208353 0.500000
vt 0.208353 0.463638
vt 0.176624 0.500000
vt 0.176624 0.460955
vt 0.179310 0.463638
vt 0.179310 0.500000
vt 0.173937 0.500000
vt 0.173937 0.463638
vt 0.142208 0.500000
vt 0.142208 0.460955
vt 0.144894 0.463638
vt 0.144894 0.500000
vt 0.139521 0.500000
vt 0.139521 0.463638
vt 0.107792 0.500000
vt 0.107792 0.460955
vt 0.110479 0.463638
vt 0.110479 0.500000
vt 0.105106 0.500000
vt 0.105106 0.463638
vt 0.073376 0.500000
vt 0.073376 0.460955
vt 0.076063 0.463638
vt 0.076063 0.500000
vt 0.070690 0.500000
vt 0.070690 0.463638
vt 0.038960 0.500000
vt 0.041647 0.463638
vt 0.041647 0.500000
vt 0.036274 0.500000
vt 0.041647 0.360493
vt 0.073376 0.357809
vt 0.070690 0.360493
vt 0.076063 0.360493
vt 0.107792 0.357809
vt 0.105106 0.360493
vt 0.110479 0.360493
vt 0.142208 0.357809
vt 0.139521 0.360493
vt 0.144894 0.360493
vt 0.176624 0.357809
vt 0.173937 0.360493
vt 0.179310 0.360493
vt 0.211040 0.357809
vt 0.208353 0.360493
vt 0.213726 0.360493
vt 0.250000 0.357809
vt 0.250000 0.360493
vt 0.041647 0.429257
vt 0.073376 0.426573
vt 0.070690 0.429257
vt 0.076063 0.429257
vt 0.107792 0.426573
vt 0.105106 0.429257
vt 0.110479 0.429257
vt 0.142208 0.426573
vt 0.139521 0.429257
vt 0.144894 0.429257
vt 0.176624 0.426573
vt 0.173937 0.429257
vt 0.179310 0.429257
vt 0.211040 0.426573
vt 0.208353 0.429257
vt 0.213726 0.429257
vt 0.250000 0.426573
vt 0.250000 0.429257
vt 0.041647 0.389507
vt 0.070690 0.389507
vt 0.073376 0.392191
vt 0.076063 0.389507
vt 0.105106 0.389507
vt 0.107792 0.392191
vt 0.110479 0.389507
vt 0.139521 0.389507
vt 0.142208 0.392191
vt 0.144894 0.389507
vt 0.173937 0.389507
vt 0.176624 0.392191
vt 0.179310 0.389507
vt 0.208353 0.389507
vt 0.211040 0.392191
vt 0.213726 0.389507
vt 0.250000 0.389507
vt 0.250000 0.392191
vt 0.041647 0.355125
vt 0.070690 0.355125
vt 0.076063 0.355125
vt 0.105106 0.355125
vt 0.110479 0.355125
vt 0.139521 0.355125
vt 0.144894 0.355125
vt 0.173937 0.355125
vt 0.179310 0.355125
vt 0.208353 0.355125
vt 0.213726 0.355125
vt 0.250000 0.355125
vt 0.041647 0.423889
vt 0.070690 0.423889
vt 0.076063 0.423889
vt 0.105106 0.423889
vt 0.110479 0.423889
vt 0.139521 0.423889
vt 0.144894 0.423889
vt 0.173937 0.423889
vt 0.179310 0.423889
vt 0.208353 0.423889
vt 0.213726 0.423889
vt 0.250000 0.423889
vt 0.076063 0.458271
vt 0.076063 0.394875
vt 0.073376 0.323427
vt 0.076063 0.326111
vt 0.076063 0.320743
vt 0.073376 0.289045
vt 0.076063 0.291729
vt 0.076063 0.286362
vt 0.073376 0.250000
vt 0.076063 0.250000
vt 0.041647 0.326111
vt 0.070690 0.326111
vt 0.107792 0.323427
vt 0.105106 0.326111
vt 0.110479 0.326111
vt 0.142208 0.323427
vt 0.139521 0.326111
vt 0.144894 0.326111
vt 0.176624 0.323427
vt 0.173937 0.326111
vt 0.179310 0.326111
vt 0.211040 0.323427
vt 0.208353 0.326111
vt 0.213726 0.326111
vt 0.250000 0.323427
vt 0.250000 0.326111
vt 0.139521 0.458271
vt 0.139521 0.394875
vt 0.139521 0.320743
vt 0.139521 0.291729
vt 0.142208 0.289045
vt 0.139521 0.286362
vt 0.139521 0.250000
vt 0.142208 0.250000
vt 0.041647 0.291729
vt 0.070690 0.291729
vt 0.107792 0.289045
vt 0.105106 0.291729
vt 0.110479 0.291729
vt 0.144894 0.291729
vt 0.176624 0.289045
vt 0.173937 0.291729
vt 0.179310 0.291729
vt 0.211040 0.289045
vt 0.208353 0.291729
vt 0.213726 0.291729
vt 0.250000 0.289045
vt 0.250000 0.291729
vt 0.041647 0.320743
vt 0.070690 0.320743
vt 0.105106 0.320743
vt 0.110479 0.320743
vt 0.144894 0.320743
vt 0.173937 0.320743
vt 0.179310 0.320743
vt 0.208353 0.320743
vt 0.213726 0.320743
vt 0.250000 0.320743
vt 0.173937 0.458271
vt 0.173937 0.394875
vt 0.173937 0.286362
vt 0.173937 0.250000
vt 0.176624 0.250000
vt 0.041647 0.458271
vt 0.041647 0.394875
vt 0.041647 0.286362
vt 0.038960 0.250000
vt 0.041647 0.250000
vt 0.179310 0.458271
vt 0.179310 0.394875
vt 0.179310 0.286362
vt 0.179310 0.250000
vt 0.070690 0.286362
vt 0.105106 0.286362
vt 0.110479 0.286362
vt 0.144894 0.286362
vt 0.208353 0.286362
vt 0.213726 0.286362
vt 0.250000 0.286362
vt 0.105106 0.458271
vt 0.105106 0.394875
vt 0.105106 0.250000
vt 0.107792 0.250000
vt 0.110479 0.458271
vt 0.110479 0.394875
vt 0.110479 0.250000
vt 0.250000 0.460955
vt 0.250000 0.463638
vt 0.070690 0.458271
vt 0.070690 0.394875
vt 0.070690 0.250000
vt 0.144894 0.458271
vt 0.144894 0.394875
vt 0.144894 0.250000
vt 0.208353 0.458271
vt 0.208353 0.394875
vt 0.208353 0.250000
vt 0.211040 0.250000
vt 0.213726 0.458271
vt 0.213726 0.394875
vt 0.213726 0.250000
vt 0.250000 0.458271
vt 0.036274 0.250000
vt 0.250000 0.394875
vn 0.0000 0.8075 0.5899
vn 0.0000 0.8075 -0.5899
vn -0.5899 0.8075 0.0000
vn 0.5899 0.8075 0.0000
s off
f 5/1/1 248/2/1 224/3/1 3/4/1
f 1/5/2 226/6/2 248/2/2 5/1/2
f 11/7/1 247/8/1 223/9/1 9/10/1
f 7/11/2 225/12/2 247/8/2 11/7/2
f 17/13/1 250/14/1 228/15/1 15/16/1
f 13/17/2 230/18/2 250/14/2 17/13/2
f 23/19/1 249/20/1 227/21/1 21/22/1
f 19/23/2 229/24/2 249/20/2 23/19/2
f 29/25/1 252/26/1 232/27/1 27/28/1
f 25/29/2 234/30/2 252/26/2 29/25/2
f 35/31/1 251/32/1 231/33/1 33/34/1
f 31/35/2 233/36/2 251/32/2 35/31/2
f 41/37/3 146/38/3 134/39/3 39/40/3
f 37/41/4 170/42/4 146/38/4 41/37/4
f 47/43/3 116/44/3 92/45/3 45/46/3
f 43/47/4 104/48/4 116/44/4 47/43/4
f 53/49/3 86/50/3 74/51/3 51/52/3
f 49/53/4 122/54/4 86/50/4 53/49/4
f 59/55/3 152/56/3 158/57/3 57/58/3
f 55/59/4 182/60/4 152/56/4 59/55/4
f 65/61/3 206/62/3 212/63/3 63/64/3
f 61/65/4 194/66/4 206/62/4 65/61/4
f 71/67/3 248/2/3 236/68/3 69/69/3
f 67/70/4 224/3/4 248/2/4 71/67/4
f 239/71/1 249/20/1 207/72/1 197/73/1
f 215/74/1 207/72/1 153/75/1 185/76/1
f 161/77/1 153/75/1 87/78/1 125/79/1
f 77/80/1 87/78/1 117/81/1 107/82/1
f 95/83/1 117/81/1 147/84/1 173/85/1
f 137/86/1 147/84/1 24/87/1 22/88/1
f 235/89/1 247/8/1 205/90/1 193/91/1
f 211/92/1 205/90/1 151/93/1 181/94/1
f 157/95/1 151/93/1 85/96/1 121/97/1
f 73/98/1 85/96/1 115/99/1 103/100/1
f 91/101/1 115/99/1 145/102/1 169/103/1
f 133/104/1 145/102/1 12/105/1 10/106/1
f 242/107/2 200/108/2 208/109/2 250/14/2
f 208/109/2 218/110/2 188/111/2 154/112/2
f 154/112/2 164/113/2 128/114/2 88/115/2
f 88/115/2 80/116/2 110/117/2 118/118/2
f 118/118/2 98/119/2 176/120/2 148/121/2
f 148/121/2 140/122/2 14/123/2 18/124/2
f 241/125/2 199/126/2 207/72/2 249/20/2
f 207/72/2 217/127/2 187/128/2 153/75/2
f 153/75/2 163/129/2 127/130/2 87/78/2
f 87/78/2 79/131/2 109/132/2 117/81/2
f 117/81/2 97/133/2 175/134/2 147/84/2
f 147/84/2 139/135/2 20/136/2 24/87/2
f 237/137/2 195/138/2 205/90/2 247/8/2
f 205/90/2 213/139/2 183/140/2 151/93/2
f 151/93/2 159/141/2 123/142/2 85/96/2
f 85/96/2 75/143/2 105/144/2 115/99/2
f 115/99/2 93/145/2 171/146/2 145/102/2
f 145/102/2 135/147/2 8/148/2 12/105/2
f 214/149/3 206/62/3 205/90/3 211/92/3
f 213/139/3 205/90/3 208/109/3 216/150/3
f 218/110/3 208/109/3 207/72/3 215/74/3
f 217/127/3 207/72/3 210/151/3 220/152/3
f 222/153/3 210/151/3 209/154/3 219/155/3
f 221/156/3 209/154/3 66/157/3 64/158/3
f 244/159/1 252/26/1 210/151/1 202/160/1
f 220/152/1 210/151/1 156/161/1 190/162/1
f 166/163/1 156/161/1 90/164/1 130/165/1
f 82/166/1 90/164/1 120/167/1 112/168/1
f 100/169/1 120/167/1 150/170/1 178/171/1
f 142/172/1 150/170/1 30/173/1 28/174/1
f 124/175/4 121/97/4 85/96/4 86/50/4
f 85/96/4 123/142/4 126/176/4 88/115/4
f 88/115/4 128/114/4 125/79/4 87/78/4
f 87/78/4 127/130/4 130/165/4 90/164/4
f 90/164/4 132/177/4 129/178/4 89/179/4
f 89/179/4 131/180/4 50/181/4 54/182/4
f 243/183/1 251/32/1 209/154/1 201/184/1
f 219/155/1 209/154/1 155/185/1 189/186/1
f 165/187/1 155/185/1 89/179/1 129/178/1
f 81/188/1 89/179/1 119/189/1 111/190/1
f 99/191/1 119/189/1 149/192/1 177/193/1
f 141/194/1 149/192/1 36/195/1 34/196/1
f 246/197/2 204/198/2 210/151/2 252/26/2
f 210/151/2 222/153/2 192/199/2 156/161/2
f 156/161/2 168/200/2 132/177/2 90/164/2
f 90/164/2 84/201/2 114/202/2 120/167/2
f 120/167/2 102/203/2 180/204/2 150/170/2
f 150/170/2 144/205/2 26/206/2 30/173/2
f 106/207/4 103/100/4 115/99/4 116/44/4
f 115/99/4 105/144/4 108/208/4 118/118/4
f 118/118/4 110/117/4 107/82/4 117/81/4
f 117/81/4 109/132/4 112/168/4 120/167/4
f 120/167/4 114/202/4 111/190/4 119/189/4
f 119/189/4 113/209/4 44/210/4 48/211/4
f 238/212/3 248/2/3 247/8/3 235/89/3
f 237/137/3 247/8/3 250/14/3 240/213/3
f 242/107/3 250/14/3 249/20/3 239/71/3
f 241/125/3 249/20/3 252/26/3 244/159/3
f 246/197/3 252/26/3 251/32/3 243/183/3
f 245/214/3 251/32/3 72/215/3 70/216/3
f 94/217/3 116/44/3 115/99/3 91/101/3
f 93/145/3 115/99/3 118/118/3 96/218/3
f 98/119/3 118/118/3 117/81/3 95/83/3
f 97/133/3 117/81/3 120/167/3 100/169/3
f 102/203/3 120/167/3 119/189/3 99/191/3
f 101/219/3 119/189/3 48/211/3 46/220/3
f 245/214/2 203/221/2 209/154/2 251/32/2
f 209/154/2 221/156/2 191/222/2 155/185/2
f 155/185/2 167/223/2 131/180/2 89/179/2
f 89/179/2 83/224/2 113/209/2 119/189/2
f 119/189/2 101/219/2 179/225/2 149/192/2
f 149/192/2 143/226/2 32/227/2 36/195/2
f 184/228/4 181/94/4 151/93/4 152/56/4
f 151/93/4 183/140/4 186/229/4 154/112/4
f 154/112/4 188/111/4 185/76/4 153/75/4
f 153/75/4 187/128/4 190/162/4 156/161/4
f 156/161/4 192/199/4 189/186/4 155/185/4
f 155/185/4 191/222/4 56/230/4 60/231/4
f 160/232/3 152/56/3 151/93/3 157/95/3
f 159/141/3 151/93/3 154/112/3 162/233/3
f 164/113/3 154/112/3 153/75/3 161/77/3
f 163/129/3 153/75/3 156/161/3 166/163/3
f 168/200/3 156/161/3 155/185/3 165/187/3
f 167/223/3 155/185/3 60/231/3 58/234/3
f 236/68/1 248/2/1 206/62/1 194/66/1
f 212/63/1 206/62/1 152/56/1 182/60/1
f 158/57/1 152/56/1 86/50/1 122/54/1
f 74/51/1 86/50/1 116/44/1 104/48/1
f 92/45/1 116/44/1 146/38/1 170/42/1
f 134/39/1 146/38/1 6/235/1 4/236/1
f 196/237/4 193/91/4 205/90/4 206/62/4
f 205/90/4 195/138/4 198/238/4 208/109/4
f 208/109/4 200/108/4 197/73/4 207/72/4
f 207/72/4 199/126/4 202/160/4 210/151/4
f 210/151/4 204/198/4 201/184/4 209/154/4
f 209/154/4 203/221/4 62/239/4 66/157/4
f 76/240/3 86/50/3 85/96/3 73/98/3
f 75/143/3 85/96/3 88/115/3 78/241/3
f 80/116/3 88/115/3 87/78/3 77/80/3
f 79/131/3 87/78/3 90/164/3 82/166/3
f 84/201/3 90/164/3 89/179/3 81/188/3
f 83/224/3 89/179/3 54/182/3 52/242/3
f 172/243/4 169/103/4 145/102/4 146/38/4
f 145/102/4 171/146/4 174/244/4 148/121/4
f 148/121/4 176/120/4 173/85/4 147/84/4
f 147/84/4 175/134/4 178/171/4 150/170/4
f 150/170/4 180/204/4 177/193/4 149/192/4
f 149/192/4 179/225/4 38/245/4 42/246/4
f 136/247/3 146/38/3 145/102/3 133/104/3
f 135/147/3 145/102/3 148/121/3 138/248/3
f 140/122/3 148/121/3 147/84/3 137/86/3
f 139/135/3 147/84/3 150/170/3 142/172/3
f 144/205/3 150/170/3 149/192/3 141/194/3
f 143/226/3 149/192/3 42/246/3 40/249/3
f 238/212/2 196/237/2 206/62/2 248/2/2
f 206/62/2 214/149/2 184/228/2 152/56/2
f 152/56/2 160/232/2 124/175/2 86/50/2
f 86/50/2 76/240/2 106/207/2 116/44/2
f 116/44/2 94/217/2 172/243/2 146/38/2
f 146/38/2 136/247/2 2/250/2 6/235/2
f 226/6/4 223/9/4 247/8/4 248/2/4
f 247/8/4 225/12/4 228/15/4 250/14/4
f 250/14/4 230/18/4 227/21/4 249/20/4
f 249/20/4 229/24/4 232/27/4 252/26/4
f 252/26/4 234/30/4 231/33/4 251/32/4
f 251/32/4 233/36/4 68/251/4 72/215/4
f 240/213/1 250/14/1 208/109/1 198/238/1
f 216/150/1 208/109/1 154/112/1 186/229/1
f 162/233/1 154/112/1 88/115/1 126/176/1
f 78/241/1 88/115/1 118/118/1 108/208/1
f 96/218/1 118/118/1 148/121/1 174/244/1
f 138/248/1 148/121/1 18/124/1 16/252/1
