# Blender v2.83.13 OBJ File: '0-src-5-opt.blend'
# www.blender.org
v 3.128580 -0.203746 -1.053764
v -3.128580 -0.203744 -1.053764
v 3.128580 0.092082 -1.053765
v -3.128580 0.092083 -1.053765
v -0.006671 -0.055831 -0.905851
v -0.006671 -0.393213 -1.053764
v -0.006671 -0.055831 -1.201678
v 2.141309 0.092082 -1.053765
v -2.145511 0.092083 -1.053765
v 2.141309 -0.055832 -1.308957
v -2.145511 -0.055831 -1.299488
v 2.141309 -0.203746 -1.053764
v -2.145510 -0.203744 -1.053764
v -3.128580 -0.055830 -0.905851
v 1.953572 0.092082 -1.053765
v 0.147316 -0.055831 -1.201678
v 1.953572 -0.055832 -1.201678
v 2.298375 -0.203746 -1.053764
v 3.128580 -0.055832 -1.201678
v 2.298375 -0.055832 -1.201678
v 0.147316 -0.055831 -0.905851
v 2.298375 0.092082 -1.053765
v -1.957773 0.092083 -1.053765
v -0.159203 -0.055831 -0.905851
v -2.301908 -0.203744 -1.053764
v -0.159203 -0.055831 -1.201678
v -1.957773 -0.055831 -1.201678
v -2.301908 0.092083 -1.053765
v -0.159203 -0.203745 -1.053764
v -1.957773 -0.203744 -1.053764
v -3.128580 -0.055830 -1.201678
v -2.301908 -0.055831 -1.201678
v 0.147316 -0.203745 -1.053764
v 1.953572 -0.203746 -1.053764
v 3.128580 -0.055832 -0.905851
v -3.128580 -0.055832 0.902579
v 3.128580 -0.055830 0.902579
v 3.128580 -0.055830 1.198406
v 0.006671 -0.055831 0.902579
v 0.006671 -0.393213 1.050492
v 0.006671 -0.055831 1.198406
v -2.141309 0.092082 1.050493
v 2.145511 0.092083 1.050493
v -2.141309 -0.055832 1.377694
v 2.145511 -0.055831 1.328220
v -2.141309 -0.203746 1.050492
v 2.145510 -0.203744 1.050492
v 3.128580 0.092084 1.050493
v -3.128580 -0.203746 1.050492
v -1.953572 0.092082 1.050493
v -0.147316 -0.055831 1.198406
v -1.953572 -0.055832 1.198406
v -2.298375 -0.203746 1.050492
v -3.128580 -0.055832 1.198406
v -2.298375 -0.055832 1.198406
v -0.147316 -0.055831 0.902579
v -3.128580 0.092082 1.050493
v -2.298375 0.092082 1.050493
v 1.957773 0.092083 1.050493
v 0.159203 -0.055831 0.902579
v 3.128580 -0.203744 1.050492
v 2.301908 -0.203744 1.050492
v 0.159203 -0.055831 1.198406
v 1.957773 -0.055831 1.198406
v 2.301908 0.092083 1.050493
v 0.159203 -0.203745 1.050492
v 1.957773 -0.203744 1.050492
v 2.301908 -0.055831 1.198406
v -0.147316 -0.203745 1.050492
v -1.953572 -0.203746 1.050492
v 1.056131 0.092083 -3.126215
v 1.204041 -0.055832 3.130945
v 1.056131 -0.203744 -3.126215
v 1.056127 -0.203745 3.130945
v 1.056129 0.092083 0.009035
v 1.393511 -0.055831 0.009035
v 1.056129 -0.203745 0.009035
v 0.908217 -0.055831 -2.138945
v 0.908214 -0.055832 2.147875
v 1.056131 -0.383033 -2.138945
v 1.056128 -0.333559 2.147875
v 1.204044 -0.055831 -2.138945
v 1.204041 -0.055831 2.147875
v 0.908217 -0.055831 -3.126215
v 1.056127 0.092082 3.130945
v 1.204045 -0.055831 -3.126215
v 0.908217 -0.055831 -1.951208
v 1.056129 -0.203745 -0.144951
v 1.056131 -0.203745 -1.951208
v 1.204044 -0.055831 -2.296011
v 1.056131 -0.203745 -2.296011
v 1.056129 0.092083 -0.144951
v 0.908217 -0.055831 -2.296011
v 0.908214 -0.055832 1.960138
v 1.056129 0.092082 0.161568
v 1.204041 -0.055832 2.304273
v 1.056129 -0.203745 0.161568
v 1.056128 -0.203745 1.960138
v 0.908213 -0.055832 3.130945
v 0.908214 -0.055832 2.304273
v 1.204043 -0.055831 0.161568
v 1.204041 -0.055831 1.960138
v 1.056128 -0.203745 2.304273
v 1.204043 -0.055831 -0.144952
v 1.204044 -0.055831 -1.951208
v -1.196043 -0.055831 3.130945
v -1.048129 -0.203744 3.130945
v -1.048128 0.092083 -0.004306
v -1.385510 -0.055831 -0.004306
v -1.048128 -0.203745 -0.004306
v -0.900215 -0.055831 2.143674
v -0.900213 -0.055832 -2.143146
v -1.048129 -0.383033 2.143674
v -1.048127 -0.333559 -2.143146
v -1.196043 -0.055831 2.143674
v -1.196041 -0.055831 -2.143146
v -0.900216 -0.055831 3.130945
v -0.900215 -0.055831 1.955937
v -1.048128 -0.203745 0.149681
v -1.048129 -0.203745 1.955937
v -1.196043 -0.055831 2.300740
v -1.048129 -0.203745 2.300740
v -1.048128 0.092083 0.149681
v -0.900215 -0.055831 2.300740
v -0.900213 -0.055832 -1.955409
v -1.048128 0.092082 -0.156839
v -1.196040 -0.055832 -3.126215
v -1.196041 -0.055832 -2.299543
v -1.048126 0.092082 -3.126215
v -1.048128 -0.203745 -0.156839
v -1.048127 -0.203745 -1.955409
v -0.900213 -0.055832 -3.126215
v -0.900213 -0.055832 -2.299544
v -1.196042 -0.055831 -0.156839
v -1.196041 -0.055831 -1.955409
v -1.048126 -0.203745 -3.126215
v -1.048127 -0.203745 -2.299544
v -1.196042 -0.055831 0.149681
v -1.196043 -0.055831 1.955937
v -1.048129 0.092083 3.130945
v 1.204042 -0.055831 1.198406
v 1.138808 0.009403 0.967812
v 1.056128 0.092082 1.050493
v 0.965447 0.001402 1.141174
v 0.973449 0.009402 0.967812
v 0.908214 -0.055832 1.198406
v 0.965447 -0.113064 1.141173
v 0.973448 -0.121064 0.967812
v 1.056129 -0.203745 1.050492
v 1.138809 -0.121064 0.967812
v -1.196042 -0.055831 1.198406
v -1.048128 0.092083 1.050493
v -0.900215 -0.055831 1.198406
v -0.961246 0.005201 1.137374
v -0.961246 0.005201 0.963611
v -1.135010 0.005201 0.963611
v -1.135009 -0.116864 0.963611
v -1.048128 -0.203745 1.050492
v -0.961246 -0.116863 1.137375
v -0.961247 -0.116864 0.963611
v 0.965447 0.001401 0.959811
v 1.204042 -0.055831 0.902579
v 0.908215 -0.055831 0.902579
v -0.900215 -0.055831 0.902579
v -1.196042 -0.055832 0.902579
v 0.965447 -0.113064 0.959812
v 0.908216 -0.055831 -0.905851
v 0.961247 -0.002800 -0.958882
v 1.151012 -0.108863 -0.958882
v 1.151013 -0.002800 -0.958882
v 1.204043 -0.055831 -0.905851
v 0.961247 -0.108863 -0.958882
v -1.196041 -0.055831 -0.905851
v -1.138809 -0.113063 -0.963083
v -0.900214 -0.055831 -0.905851
v -0.957446 0.001401 -0.963083
v -1.138808 0.001401 -0.963083
v -0.957445 -0.113063 -0.963083
v -1.048128 -0.203745 -1.053764
v -0.965447 -0.121065 -0.971085
v -1.048127 0.092083 -1.053765
v -0.965447 0.009402 -0.971084
v 1.056130 0.092082 -1.053765
v 1.056130 -0.203745 -1.053764
v 0.908216 -0.055831 -1.201678
v 1.204044 -0.055831 -1.201678
v 0.961246 -0.108861 -1.148648
v 0.961246 -0.002801 -1.148647
v -1.196041 -0.055831 -1.201678
v -0.965447 0.009402 -1.136445
v -0.900214 -0.055832 -1.201678
v -0.965447 -0.121065 -1.136444
vt 1.000000 0.834394
vt 1.000000 0.822574
vt 1.000000 0.834394
vt 1.000000 0.846213
vt 0.833754 0.737278
vt 0.833754 0.665606
vt 0.841000 0.672853
vt 0.845574 0.677426
vt 0.845574 0.737278
vt 0.500000 0.822574
vt 0.500000 0.834394
vt 0.500000 0.846213
vt 0.500000 0.834394
vt 0.566340 0.665606
vt 0.578891 0.665606
vt 0.593893 0.665606
vt 0.665606 0.665606
vt 0.658024 0.673188
vt 0.653787 0.677426
vt 0.500000 0.677426
vt 0.500000 0.665606
vt 0.593893 0.653787
vt 0.653787 0.653787
vt 0.593893 0.834394
vt 0.665606 0.834394
vt 0.653787 0.846213
vt 0.593893 0.846213
vt 0.653787 0.822574
vt 0.658024 0.826812
vt 0.578891 0.834394
vt 0.566340 0.834394
vt 0.500000 0.653787
vt 0.566340 0.653787
vt 0.921444 0.665606
vt 0.933942 0.665606
vt 1.000000 0.665606
vt 1.000000 0.677426
vt 0.906443 0.665606
vt 0.566340 0.846213
vt 0.933942 0.653787
vt 1.000000 0.653787
vt 0.933942 0.834394
vt 0.933942 0.846213
vt 0.665606 0.738228
vt 0.653787 0.738228
vt 0.673188 0.841976
vt 0.738228 0.834394
vt 0.738228 0.846213
vt 0.677426 0.846213
vt 0.653787 0.761772
vt 0.665606 0.761772
vt 0.578891 0.645214
vt 0.578891 0.854786
vt 0.738228 0.822574
vt 0.750533 0.822574
vt 0.750533 0.834394
vt 0.906443 0.653787
vt 0.921444 0.645971
vt 0.762722 0.834394
vt 0.762722 0.846213
vt 0.750533 0.846213
vt 0.906443 0.834394
vt 0.921444 0.834394
vt 0.921444 0.854029
vt 0.906443 0.846213
vt 0.762722 0.822574
vt 0.500000 0.666246
vt 0.500000 0.678065
vt 0.500000 0.666246
vt 0.500000 0.654426
vt 1.000000 0.678065
vt 1.000000 0.666246
vt 1.000000 0.654426
vt 1.000000 0.666246
vt 0.933660 0.833754
vt 0.921109 0.833754
vt 0.906107 0.833754
vt 0.833754 0.833754
vt 0.840697 0.826812
vt 0.845574 0.821935
vt 1.000000 0.821935
vt 1.000000 0.833754
vt 0.906107 0.845574
vt 0.845574 0.845574
vt 0.906107 0.666246
vt 0.833754 0.666246
vt 0.845574 0.654426
vt 0.906107 0.654426
vt 0.845574 0.678065
vt 0.840697 0.673188
vt 0.921109 0.666246
vt 0.933660 0.666246
vt 1.000000 0.845574
vt 0.933660 0.845574
vt 0.578556 0.833754
vt 0.566058 0.833754
vt 0.500000 0.833754
vt 0.500000 0.821935
vt 0.653787 0.821935
vt 0.659000 0.827147
vt 0.665606 0.833754
vt 0.593557 0.833754
vt 0.933660 0.654426
vt 0.566058 0.845574
vt 0.500000 0.845574
vt 0.827147 0.827787
vt 0.833754 0.834394
vt 0.821935 0.822574
vt 0.826508 0.827147
vt 0.566058 0.666246
vt 0.566058 0.654426
vt 0.672213 0.827147
vt 0.672853 0.826508
vt 0.677426 0.821935
vt 0.737278 0.821935
vt 0.749467 0.821935
vt 0.761772 0.821935
vt 0.821935 0.821935
vt 0.826812 0.826812
vt 0.665606 0.762722
vt 0.653787 0.762722
vt 0.677426 0.677426
vt 0.665606 0.750533
vt 0.673188 0.673188
vt 0.826812 0.659303
vt 0.761772 0.666246
vt 0.761772 0.654426
vt 0.821935 0.654426
vt 0.653787 0.737278
vt 0.653787 0.678065
vt 0.659000 0.672853
vt 0.665606 0.666246
vt 0.665606 0.737278
vt 0.665606 0.749467
vt 0.672213 0.672853
vt 0.672853 0.673492
vt 0.677426 0.678065
vt 0.677426 0.822574
vt 0.673188 0.826812
vt 0.921109 0.859901
vt 0.921109 0.640100
vt 0.761772 0.678065
vt 0.749467 0.678065
vt 0.749467 0.666246
vt 0.593557 0.845574
vt 0.578556 0.855947
vt 0.737278 0.666246
vt 0.737278 0.654426
vt 0.749467 0.654426
vt 0.593557 0.666246
vt 0.578556 0.666246
vt 0.578556 0.644053
vt 0.593557 0.654426
vt 0.737278 0.678065
vt 0.653787 0.500000
vt 0.665607 0.500000
vt 0.677426 0.500000
vt 0.665606 0.500000
vt 0.665606 1.000000
vt 0.653787 1.000000
vt 0.665606 1.000000
vt 0.677426 1.000000
vt 0.677426 0.566340
vt 0.677426 0.578891
vt 0.677426 0.593893
vt 0.677426 0.653787
vt 0.673188 0.658024
vt 0.665606 0.500000
vt 0.677426 0.500000
vt 0.665606 0.906107
vt 0.677426 0.906107
vt 0.653787 0.906107
vt 0.653787 0.593893
vt 0.653787 0.578891
vt 0.653787 0.566340
vt 0.653787 0.500000
vt 0.665606 0.933660
vt 0.677426 0.933660
vt 0.677426 0.921444
vt 0.677426 0.933942
vt 0.677426 1.000000
vt 0.665607 1.000000
vt 0.672853 0.841000
vt 0.677426 0.845574
vt 0.677426 0.906443
vt 0.653787 0.933660
vt 0.665606 0.566058
vt 0.677426 0.566058
vt 0.653787 0.566058
vt 0.665606 0.921109
vt 0.677426 0.921109
vt 0.653787 0.921109
vt 0.638647 0.750533
vt 0.665606 0.593557
vt 0.665606 0.578556
vt 0.677426 0.578556
vt 0.677426 0.593557
vt 0.638647 0.749467
vt 0.653787 0.593557
vt 0.653787 0.578556
vt 0.845574 1.000000
vt 0.833754 1.000000
vt 0.821935 1.000000
vt 0.833754 1.000000
vt 0.833754 0.500000
vt 0.845574 0.500000
vt 0.833754 0.500000
vt 0.821935 0.500000
vt 0.821935 0.933660
vt 0.821935 0.921109
vt 0.821935 0.906107
vt 0.821935 0.845574
vt 0.826812 0.840697
vt 0.833754 1.000000
vt 0.821935 1.000000
vt 0.833754 0.593893
vt 0.821935 0.593893
vt 0.845574 0.593893
vt 0.845574 0.906107
vt 0.845574 0.921109
vt 0.845574 0.933660
vt 0.845574 1.000000
vt 0.833754 0.566340
vt 0.821935 0.566340
vt 0.821935 0.578556
vt 0.821935 0.566058
vt 0.821935 0.500000
vt 0.833754 0.500000
vt 0.827147 0.659000
vt 0.821935 0.653787
vt 0.821935 0.593557
vt 0.845574 0.566340
vt 0.833754 0.933942
vt 0.821935 0.933942
vt 0.845574 0.933942
vt 0.833754 0.578891
vt 0.821935 0.578891
vt 0.845574 0.578891
vt 0.833754 0.761772
vt 0.833754 0.749467
vt 0.860714 0.749467
vt 0.845574 0.761772
vt 0.833754 0.906443
vt 0.833754 0.921444
vt 0.821935 0.921444
vt 0.821935 0.906443
vt 0.860714 0.750533
vt 0.845574 0.762722
vt 0.833754 0.762722
vt 0.833754 0.750533
vt 0.845574 0.906443
vt 0.845574 0.921444
vt 0.845574 0.738228
vt 0.833754 0.738228
vt 0.750533 0.653787
vt 0.762722 0.653787
vt 0.738228 0.653787
vt 0.749467 0.845574
vt 0.737278 0.845574
vt 0.761772 0.845574
vt 0.827147 0.672213
vt 0.826508 0.672853
vt 0.821935 0.677426
vt 0.762722 0.677426
vt 0.750533 0.677426
vt 0.738228 0.677426
vt 0.677426 0.654426
vt 0.672853 0.659000
vt 0.845574 0.653787
vt 0.845574 0.846213
vt 0.845574 0.822574
vt 0.841000 0.827147
vt 0.827147 0.841000
vt 0.821935 0.846213
vt 0.653787 1.000000
vt 0.653787 0.933942
vt 0.653787 0.921444
vt 0.653787 0.906443
vt 0.653787 0.845574
vt 0.821935 0.678065
vt 0.826812 0.673188
vt 0.653787 0.654426
vt 0.845574 0.500000
vt 0.845574 0.566058
vt 0.845574 0.578556
vt 0.845574 0.593557
vn -1.0000 -0.0000 0.0000
vn -0.7071 0.7071 -0.0000
vn 1.0000 0.0000 -0.0000
vn 0.0000 0.7071 0.7071
vn 0.0000 0.7071 -0.7071
vn -0.0000 -0.7071 -0.7071
vn -0.0000 -0.7071 0.7071
vn 0.7071 0.7071 0.0000
vn 0.7071 -0.7071 0.0000
vn -0.1667 0.7949 -0.5834
vn -0.1667 -0.7949 -0.5834
vn 0.1981 -0.7902 -0.5799
vn 0.1981 0.7902 -0.5799
vn 0.3050 -0.4957 0.8132
vn 0.1546 0.7898 -0.5936
vn -0.3076 -0.4953 -0.8125
vn -0.1846 0.7857 -0.5905
vn 0.1546 -0.7898 -0.5936
vn -0.3076 -0.4953 0.8125
vn -0.1846 -0.7857 -0.5905
vn 0.3050 -0.4957 -0.8132
vn -0.7071 -0.7071 -0.0000
vn 0.2447 0.8231 0.5125
vn 0.2447 -0.8231 0.5125
vn -0.2888 -0.8127 0.5060
vn -0.2888 0.8127 0.5060
vn -0.3050 -0.4957 -0.8132
vn -0.1936 0.8056 0.5599
vn 0.3076 -0.4953 0.8125
vn 0.2305 0.7990 0.5553
vn -0.1936 -0.8056 0.5599
vn 0.3076 -0.4953 -0.8125
vn 0.2305 -0.7990 0.5553
vn -0.3050 -0.4957 0.8132
vn -0.0000 0.0000 1.0000
vn -0.0000 -0.0000 -1.0000
vn -0.8231 -0.5125 0.2447
vn 0.8231 -0.5125 0.2447
vn 0.8127 -0.5060 -0.2888
vn -0.8127 -0.5060 -0.2888
vn 0.4957 0.8132 -0.3050
vn -0.8056 -0.5599 -0.1936
vn 0.4953 -0.8125 0.3076
vn -0.7990 -0.5553 0.2305
vn 0.8056 -0.5599 -0.1936
vn 0.4953 0.8125 0.3076
vn 0.7990 -0.5553 0.2305
vn 0.4957 -0.8132 -0.3050
vn 0.8231 -0.5125 -0.2447
vn -0.8231 -0.5125 -0.2447
vn -0.8127 -0.5060 0.2888
vn 0.8127 -0.5060 0.2888
vn -0.4957 0.8132 0.3050
vn 0.8056 -0.5599 0.1936
vn -0.4953 -0.8125 -0.3076
vn 0.7990 -0.5553 -0.2305
vn -0.8056 -0.5599 0.1936
vn -0.4953 0.8125 -0.3076
vn -0.7990 -0.5553 -0.2305
vn -0.4957 -0.8132 0.3050
s off
f 2/1/1 14/2/1 4/3/1 31/4/1
f 126/5/2 181/6/2 177/7/2 173/8/2 134/9/2
f 35/10/3 1/11/3 19/12/3 3/13/3
f 22/14/4 8/15/4 15/16/4 183/17/4 170/18/4 171/19/4 35/20/4 3/21/4
f 17/22/5 186/23/5 183/17/5 15/16/5
f 34/24/6 184/25/6 186/26/6 17/27/6
f 171/28/7 169/29/7 184/25/7 34/24/7 12/30/7 18/31/7 1/11/7 35/10/7
f 19/32/5 20/33/5 22/14/5 3/21/5
f 9/34/4 28/35/4 4/36/4 14/37/4 173/8/4 177/7/4 181/6/4 23/38/4
f 1/11/6 18/31/6 20/39/6 19/12/6
f 32/40/5 31/41/5 4/36/5 28/35/5
f 25/42/6 2/1/6 31/4/6 32/43/6
f 170/18/8 183/17/8 92/44/8 104/45/8 171/19/8
f 187/46/6 184/25/6 33/47/6 16/48/6 185/49/6
f 169/29/9 171/28/9 104/50/9 88/51/9 184/25/9
f 10/52/10 17/22/10 15/16/10 8/15/10
f 12/30/11 34/24/11 17/27/11 10/53/11
f 18/31/12 12/30/12 10/53/12 20/39/12
f 20/33/13 10/52/13 8/15/13 22/14/13
f 21/54/14 5/55/14 6/56/14 33/47/14
f 27/57/15 11/58/15 9/34/15 23/38/15
f 6/56/16 29/59/16 26/60/16 7/61/16
f 11/58/17 32/40/17 28/35/17 9/34/17
f 30/62/18 13/63/18 11/64/18 27/65/18
f 5/55/19 24/66/19 29/59/19 6/56/19
f 13/63/20 25/42/20 32/43/20 11/64/20
f 33/47/21 6/56/21 7/61/21 16/48/21
f 61/67/3 37/68/3 48/69/3 38/70/3
f 36/71/1 49/72/1 54/73/1 57/74/1
f 58/75/5 42/76/5 50/77/5 152/78/5 156/79/5 165/80/5 36/81/5 57/82/5
f 52/83/4 151/84/4 152/78/4 50/77/4
f 70/85/7 158/86/7 151/87/7 52/88/7
f 165/89/6 157/90/6 158/86/6 70/85/6 46/91/6 53/92/6 49/72/6 36/71/6
f 54/93/4 55/94/4 58/75/4 57/82/4
f 43/95/5 65/96/5 48/97/5 37/98/5 162/99/5 142/100/5 143/101/5 59/102/5
f 49/72/7 53/92/7 55/103/7 54/73/7
f 68/104/4 38/105/4 48/97/4 65/96/4
f 180/106/7 179/107/7 29/59/7 24/66/7 175/108/7 178/109/7
f 62/110/7 61/67/7 38/70/7 68/111/7
f 152/78/5 143/101/5 145/112/5 161/113/5 163/114/5 60/115/5 39/116/5 56/117/5 164/118/5 155/119/5
f 95/120/8 143/101/8 142/100/8 162/99/8 101/121/8
f 167/122/2 163/114/2 161/113/2 145/112/2 143/101/2 95/120/2 75/123/2 92/44/2 183/17/2 168/124/2
f 159/125/7 158/86/7 69/126/7 51/127/7 153/128/7
f 101/129/9 162/130/9 150/131/9 149/132/9 97/133/9
f 77/134/22 97/133/22 149/132/22 148/135/22 166/136/22 163/137/22 167/138/22 172/139/22 184/25/22 88/51/22
f 44/140/23 52/83/23 50/77/23 42/76/23
f 46/91/24 70/85/24 52/88/24 44/141/24
f 53/92/25 46/91/25 44/141/25 55/103/25
f 55/94/26 44/140/26 42/76/26 58/75/26
f 56/142/27 39/143/27 40/144/27 69/126/27
f 64/145/28 45/146/28 43/95/28 59/102/28
f 40/144/29 66/147/29 63/148/29 41/149/29
f 45/146/30 68/104/30 65/96/30 43/95/30
f 67/150/31 47/151/31 45/152/31 64/153/31
f 39/143/32 60/154/32 66/147/32 40/144/32
f 47/151/33 62/110/33 68/111/33 45/152/33
f 69/126/34 40/144/34 41/149/34 51/127/34
f 72/155/35 85/156/35 99/157/35 74/158/35
f 71/159/36 86/160/36 73/161/36 84/162/36
f 93/163/2 78/164/2 87/165/2 185/166/2 188/167/2 183/17/2 71/168/2 84/169/2
f 89/170/22 184/25/22 187/46/22 185/49/22 87/171/22
f 105/172/9 186/26/9 184/25/9 89/170/9
f 183/17/8 186/23/8 105/173/8 82/174/8 90/175/8 86/176/8 71/168/8
f 73/161/22 91/177/22 93/178/22 84/162/22
f 79/179/2 100/180/2 99/181/2 85/182/2 143/101/2 144/183/2 146/184/2 94/185/2
f 86/160/9 90/186/9 91/177/9 73/161/9
f 103/187/22 74/158/22 99/157/22 100/188/22
f 96/189/9 72/155/9 74/158/9 103/187/9
f 80/190/37 89/170/37 87/171/37 78/191/37
f 82/192/38 105/172/38 89/170/38 80/190/38
f 90/186/39 82/192/39 80/190/39 91/177/39
f 91/177/40 80/190/40 78/191/40 93/178/40
f 92/44/41 75/123/41 76/193/41 104/45/41
f 98/194/42 81/195/42 79/196/42 94/197/42
f 76/198/43 101/129/43 97/133/43 77/134/43
f 81/195/44 103/187/44 100/188/44 79/196/44
f 102/199/45 83/200/45 81/195/45 98/194/45
f 75/123/46 95/120/46 101/121/46 76/193/46
f 83/200/47 96/189/47 103/187/47 81/195/47
f 104/50/48 76/198/48 77/134/48 88/51/48
f 127/201/36 129/202/36 132/203/36 136/204/36
f 172/139/7 167/138/7 21/54/7 33/47/7 184/25/7
f 140/205/35 106/206/35 107/207/35 117/208/35
f 124/209/8 111/210/8 118/211/8 153/212/8 154/213/8 152/78/8 140/214/8 117/215/8
f 120/216/9 158/86/9 159/125/9 153/128/9 118/217/9
f 139/218/22 151/87/22 158/86/22 120/216/22
f 152/78/2 151/84/2 139/219/2 115/220/2 121/221/2 106/222/2 140/214/2
f 107/207/9 122/223/9 124/224/9 117/208/9
f 112/225/8 133/226/8 132/227/8 129/228/8 181/6/8 190/229/8 191/230/8 125/231/8
f 106/206/22 121/232/22 122/223/22 107/207/22
f 137/233/9 136/204/9 132/203/9 133/234/9
f 128/235/22 127/201/22 136/204/22 137/233/22
f 113/236/49 120/216/49 118/217/49 111/237/49
f 115/238/50 139/218/50 120/216/50 113/236/50
f 121/232/51 115/238/51 113/236/51 122/223/51
f 122/223/52 113/236/52 111/237/52 124/224/52
f 123/239/53 108/240/53 109/241/53 138/242/53
f 131/243/54 114/244/54 112/245/54 125/246/54
f 109/247/55 134/248/55 130/249/55 110/250/55
f 114/244/56 137/233/56 133/234/56 112/245/56
f 135/251/57 116/252/57 114/244/57 131/243/57
f 108/240/58 126/5/58 134/9/58 109/241/58
f 116/252/59 128/235/59 137/233/59 114/244/59
f 138/253/60 109/247/60 110/250/60 119/254/60
f 7/255/5 26/256/5 191/230/5 190/229/5 181/6/5 183/17/5 188/167/5 185/166/5 16/257/5
f 158/86/22 157/90/22 165/89/22 138/253/22 119/254/22
f 41/258/4 63/259/4 146/184/4 144/183/4 143/101/4 152/78/4 154/213/4 153/212/4 51/260/4
f 168/124/4 183/17/4 181/6/4 182/261/4 176/262/4 175/263/4 24/264/4 5/265/4 21/266/4 167/122/4
f 164/118/8 175/263/8 176/262/8 182/261/8 181/6/8 126/5/8 108/240/8 123/239/8 152/78/8 155/119/8
f 166/136/6 148/135/6 149/132/6 66/147/6 60/154/6 163/137/6
f 146/267/22 147/268/22 149/132/22 98/194/22 94/197/22
f 181/6/5 189/269/5 27/57/5 23/38/5
f 179/107/22 189/270/22 135/251/22 131/243/22
f 149/132/7 147/268/7 146/267/7 63/148/7 66/147/7
f 134/248/22 173/271/22 174/272/22 179/107/22 130/249/22
f 179/107/6 192/273/6 191/274/6 26/60/6 29/59/6
f 173/271/7 14/2/7 2/1/7 25/42/7 13/63/7 30/62/7 179/107/7 174/272/7
f 191/274/9 192/273/9 179/107/9 131/243/9 125/246/9
f 143/101/8 85/182/8 72/275/8 96/276/8 83/277/8 102/278/8 141/279/8
f 110/250/9 130/249/9 179/107/9 180/106/9 178/109/9 175/108/9 164/280/9 160/281/9 158/86/9 119/254/9
f 149/132/9 141/282/9 102/199/9 98/194/9
f 152/78/2 123/239/2 138/242/2 165/80/2 156/79/2
f 181/6/2 129/228/2 127/283/2 128/284/2 116/285/2 135/286/2 189/269/2
f 189/270/6 179/107/6 30/62/6 27/65/6
f 143/101/4 141/279/4 64/145/4 59/102/4
f 160/281/6 164/280/6 56/142/6 69/126/6 158/86/6
f 162/130/6 37/68/6 61/67/6 62/110/6 47/151/6 67/150/6 149/132/6 150/131/6
f 141/282/7 149/132/7 67/150/7 64/153/7
