# Blender v2.83.13 OBJ File: '2.blend'
# www.blender.org
v -2.443967 3.021992 6.579094
v -3.135411 2.992686 7.129027
v -2.335196 2.868806 6.718936
v -3.013780 2.810817 7.304544
v -2.377052 2.658111 6.640493
v -3.080140 2.551589 7.220442
v -2.510957 2.680836 6.453195
v -3.242784 2.573245 6.992947
v -2.552093 2.908417 6.415556
v -3.276944 2.845857 6.936450
v -1.735837 3.210537 5.790444
v -1.651498 3.106031 5.885671
v -1.670677 2.957632 5.822052
v -1.468463 2.888659 5.569406
v -1.456288 2.980549 5.542014
v -0.970698 2.892538 5.467456
v -0.505624 2.924044 5.423035
v -0.495229 2.863531 5.390193
v -1.329581 2.858693 5.512366
v -1.322416 2.915002 5.496462
v 0.014148 3.114759 5.225005
v -0.359078 2.957880 5.380316
v -0.354099 2.927318 5.362511
v 0.285910 3.184397 4.883358
v -0.004962 3.090132 5.188109
v 0.655444 3.414381 4.519615
v 0.667474 3.400218 4.531752
v 0.388824 3.221526 4.827599
v 0.372020 3.221963 4.811100
v 0.646684 3.402986 4.502672
v -1.766868 2.970441 5.687507
v -1.807138 3.126756 5.667973
v -0.983289 2.713357 5.387128
v -1.018311 2.833275 5.376903
v -1.112286 2.761574 4.960310
v -1.106292 2.806811 4.946826
v -1.043915 2.746821 4.932230
v -1.040388 2.774542 4.924400
v -0.907427 2.809531 5.531999
v -0.915276 2.698955 5.482260
v 0.040384 3.084014 5.251536
v 0.325674 3.189159 4.902056
v 0.024836 3.092137 5.549189
v 0.024657 3.070424 5.552961
v 0.035369 3.097881 5.519750
v 0.034909 3.086776 5.521651
v 0.037488 3.040385 5.231037
v 0.009463 3.044166 5.191837
v 0.666238 3.380059 4.522436
v 0.653277 3.381784 4.504307
v 0.452767 3.122719 4.634034
v 0.439042 3.123360 4.620780
v 0.470721 3.149891 4.606525
v 0.464700 3.150160 4.600697
vt 0.437098 0.086221
vt 0.437235 0.023543
vt 0.456980 0.022308
vt 0.453099 0.084471
vt 0.476391 0.022688
vt 0.468864 0.085753
vt 0.387326 0.086216
vt 0.379392 0.023238
vt 0.398773 0.022308
vt 0.403436 0.086290
vt 0.393466 0.323834
vt 0.395381 0.317940
vt 0.401577 0.317940
vt 0.403492 0.323834
vt 0.398479 0.327476
vt 0.418130 0.023478
vt 0.419953 0.087230
vt 0.423804 0.157771
vt 0.414032 0.160622
vt 0.433548 0.156596
vt 0.433908 0.216140
vt 0.424692 0.216931
vt 0.454489 0.161793
vt 0.443624 0.158479
vt 0.402823 0.162188
vt 0.469381 0.470457
vt 0.458288 0.470603
vt 0.455238 0.365515
vt 0.459746 0.365606
vt 0.417128 0.221782
vt 0.409070 0.224494
vt 0.441263 0.220265
vt 0.396713 0.385344
vt 0.389343 0.376341
vt 0.393472 0.327759
vt 0.397101 0.332192
vt 0.449085 0.224249
vt 0.450815 0.365043
vt 0.451171 0.278353
vt 0.452901 0.278133
vt 0.395515 0.308988
vt 0.391459 0.317461
vt 0.389423 0.283240
vt 0.391286 0.282821
vt 0.448649 0.466895
vt 0.478811 0.466254
vt 0.465333 0.364915
vt 0.437290 0.463811
vt 0.446473 0.364960
vt 0.385039 0.249062
vt 0.383963 0.248275
vt 0.384367 0.247001
vt 0.385709 0.247001
vt 0.386117 0.248275
vt 0.392696 0.280580
vt 0.390059 0.280895
vt 0.389028 0.262296
vt 0.390158 0.262494
vt 0.449317 0.278774
vt 0.454637 0.278367
vt 0.441961 0.365039
vt 0.447217 0.278743
vt 0.423090 0.182441
vt 0.417054 0.183152
vt 0.417895 0.193614
vt 0.422130 0.193181
vt 0.383963 0.251284
vt 0.386822 0.251284
vt 0.385859 0.255792
vt 0.384116 0.255809
vt 0.403909 0.385879
vt 0.400643 0.332455
vt 0.410167 0.376314
vt 0.403724 0.327746
vt 0.384942 0.376335
vt 0.391306 0.327756
vt 0.433451 0.420812
vt 0.439544 0.421725
vt 0.422673 0.465123
vt 0.441230 0.406618
vt 0.437859 0.406075
vt 0.389819 0.255809
vt 0.389043 0.254737
vt 0.391253 0.254737
vt 0.391655 0.255282
vt 0.397635 0.309321
vt 0.391957 0.282916
vt 0.404075 0.316240
vt 0.394152 0.282664
vt 0.387452 0.318664
vt 0.388167 0.283660
vt 0.459029 0.327451
vt 0.460936 0.326481
vt 0.459783 0.318129
vt 0.457803 0.318288
vt 0.456988 0.278726
vt 0.388338 0.246537
vt 0.389485 0.246537
vt 0.389269 0.249062
vt 0.388765 0.249062
vt 0.395434 0.275040
vt 0.391941 0.260654
vt 0.385597 0.275346
vt 0.384225 0.275694
vt 0.386402 0.261051
vt 0.386892 0.260932
vn -0.0007 0.9890 0.1477
vn -0.4377 0.7974 0.4155
vn 0.0107 0.1734 0.9848
vn 0.6775 0.2120 0.7042
vn -0.1964 -0.7107 0.6755
vn 0.4917 -0.8240 0.2814
vn -0.7660 -0.6365 -0.0895
vn -0.2815 -0.7771 -0.5629
vn -0.9218 0.2954 -0.2510
vn -0.6428 0.3643 -0.6738
vn -0.4601 0.4444 -0.7686
vn -0.4090 -0.6626 -0.6273
vn 0.0700 0.9971 -0.0298
vn 0.1245 0.9918 0.0278
vn -0.2521 0.3101 -0.9166
vn 0.2710 -0.8684 0.4153
vn 0.6125 0.3548 0.7064
vn -0.2037 -0.7645 -0.6115
vn -0.5343 0.4258 -0.7302
vn -0.0503 -0.7459 -0.6641
vn 0.1884 -0.9054 0.3804
vn 0.3237 0.0788 0.9429
vn -0.5143 -0.0725 -0.8545
vn 0.1971 0.3458 -0.9174
vn 0.6863 0.2452 -0.6847
vn -0.2767 0.6608 -0.6977
vn -0.1237 0.9384 0.3225
vn 0.3045 0.9288 -0.2109
vn -0.0943 0.4366 -0.8947
vn -0.0016 0.9857 0.1681
vn -0.0222 0.3776 0.9257
vn 0.4737 0.5310 0.7026
vn 0.4111 0.8281 -0.3811
vn 0.5332 -0.7733 0.3430
vn 0.4913 0.1896 0.8501
vn 0.9025 0.3583 0.2387
vn 0.8619 -0.4786 -0.1671
vn 0.2279 -0.4277 -0.8747
vn 0.5678 -0.7492 0.3410
vn -0.5985 -0.5598 -0.5730
vn -0.4281 -0.5992 -0.6764
vn 0.5273 -0.8339 0.1627
vn -0.5412 -0.2753 -0.7945
vn -0.2141 -0.6953 -0.6861
vn -0.5917 -0.6633 -0.4581
vn 0.5430 -0.7235 -0.4263
vn 0.3104 -0.6088 0.7301
vn 0.5463 -0.7896 0.2795
vn 0.4343 -0.6930 0.5754
vn 0.9190 -0.1591 -0.3606
vn 0.8544 -0.3949 0.3377
vn -0.5710 0.4054 -0.7138
vn 0.1406 0.2653 -0.9538
vn 0.9281 0.0748 -0.3646
s 1
f 1/1/1 2/2/2 4/3/3 3/4/4
f 3/4/4 4/3/3 6/5/5 5/6/6
f 5/7/6 6/8/5 8/9/7 7/10/8
f 4/11/3 2/12/2 10/13/9 8/14/7 6/15/5
f 7/10/8 8/9/7 10/16/9 9/17/10
f 9/17/10 10/16/9 2/2/2 1/1/1
f 7/10/8 9/17/10 32/18/11 31/19/12
f 32/18/11 11/20/13 16/21/14 34/22/15
f 3/4/4 5/6/6 13/23/16 12/24/17
f 9/17/10 1/1/1 11/20/13 32/18/11
f 1/1/1 3/4/4 12/24/17 11/20/13
f 5/7/6 7/10/8 31/19/12 13/25/16
f 33/26/18 34/27/15 25/28/19 48/29/20
f 13/25/16 31/19/12 33/30/18 40/31/21
f 11/20/13 12/24/17 39/32/22 16/21/14
f 15/33/23 20/34/24 38/35/25 36/36/26
f 12/24/17 13/23/16 40/37/21 39/32/22
f 25/28/19 21/38/27 26/39/28 30/40/29
f 22/41/30 17/42/31 43/43/32 45/44/33
f 34/27/15 16/45/14 21/38/27 25/28/19
f 40/46/21 33/26/18 48/29/20 47/47/34
f 16/45/14 39/48/22 41/49/35 21/38/27
f 26/50/28 27/51/36 49/52/37 50/53/38 30/54/29
f 42/55/39 24/56/40 52/57/41 51/58/42
f 21/38/27 41/49/35 27/59/36 26/39/28
f 48/29/20 25/28/19 30/40/29 50/60/38
f 41/49/35 47/61/34 49/62/37 27/59/36
f 15/63/23 14/64/43 31/19/12 32/18/11
f 19/65/44 20/66/24 34/22/15 33/30/18
f 20/66/24 15/63/23 32/18/11 34/22/15
f 14/64/43 19/65/44 33/30/18 31/19/12
f 35/67/45 36/68/26 38/69/25 37/70/46
f 14/71/43 15/33/23 36/36/26 35/72/45
f 19/73/44 14/71/43 35/72/45 37/74/46
f 20/34/24 19/75/44 37/76/46 38/35/25
f 18/77/47 17/78/31 39/48/22 40/79/21
f 22/80/30 23/81/48 47/61/34 41/49/35
f 23/81/48 18/77/47 40/79/21 47/61/34
f 17/78/31 22/80/30 41/49/35 39/48/22
f 43/82/32 44/83/49 46/84/50 45/85/33
f 23/86/48 22/41/30 45/44/33 46/87/50
f 18/88/47 23/86/48 46/87/50 44/89/49
f 17/42/31 18/90/47 44/91/49 43/43/32
f 24/92/40 42/93/39 47/47/34 48/29/20
f 28/94/51 29/95/52 50/60/38 49/96/37
f 29/95/52 24/92/40 48/29/20 50/60/38
f 42/93/39 28/94/51 49/96/37 47/47/34
f 51/97/42 52/98/41 54/99/53 53/100/54
f 28/101/51 42/55/39 51/58/42 53/102/54
f 29/103/52 28/104/51 53/105/54 54/106/53
f 24/56/40 29/103/52 54/106/53 52/57/41
